<?xml version="1.0" encoding="UTF-8"?>
<!DOCTYPE svg PUBLIC "-//W3C//DTD SVG 1.1//EN" "http://www.w3.org/Graphics/SVG/1.1/DTD/svg11.dtd">
<svg xmlns="http://www.w3.org/2000/svg" version="1.1" width="3840px" height="2160px" style="shape-rendering:geometricPrecision; text-rendering:geometricPrecision; image-rendering:optimizeQuality; fill-rule:evenodd; clip-rule:evenodd" xmlns:xlink="http://www.w3.org/1999/xlink">
<g><path style="opacity:0.212" fill="#1f1b1b" d="M 2002.5,49.5 C 2003.83,50.1667 2003.83,50.1667 2002.5,49.5 Z"/></g>
<g><path style="opacity:0.995" fill="#221e1f" d="M 2002.5,50.5 C 2057.36,51.7095 2111.03,61.5428 2163.5,80C 2205.25,96.368 2242.25,120.035 2274.5,151C 2305.78,179.411 2333.94,210.577 2359,244.5C 2373.69,265.843 2385.35,288.843 2394,313.5C 2405.47,346.708 2413.8,380.708 2419,415.5C 2422.38,440.121 2425.22,464.788 2427.5,489.5C 2553.57,611.952 2629.73,760.619 2656,935.5C 2679.68,1111.83 2647.85,1277.17 2560.5,1431.5C 2577.14,1439.64 2589.64,1451.97 2598,1468.5C 2618.2,1512.44 2633.2,1558.11 2643,1605.5C 2646.22,1647.15 2638.22,1686.48 2619,1723.5C 2611.64,1736.53 2601.81,1747.36 2589.5,1756C 2579.93,1760.56 2569.93,1763.89 2559.5,1766C 2517.22,1773.84 2474.89,1772.84 2432.5,1763C 2429.7,1761.21 2427.2,1759.04 2425,1756.5C 2421.25,1750.66 2417.25,1744.99 2413,1739.5C 2403.88,1739.94 2394.88,1739.94 2386,1739.5C 2367,1740.46 2348.17,1743.96 2329.5,1750C 2324.29,1751.68 2319.29,1753.85 2314.5,1756.5C 2315.29,1769.34 2310.62,1779.51 2300.5,1787C 2293.71,1790.4 2286.71,1793.23 2279.5,1795.5C 2277.02,1811.44 2276.85,1827.44 2279,1843.5C 2285.32,1872.11 2291.32,1900.78 2297,1929.5C 2303.64,1963.41 2290.81,1985.91 2258.5,1997C 2244.85,2000.73 2231.19,2004.06 2217.5,2007C 2217.6,2012.58 2217.6,2018.25 2217.5,2024C 2219.42,2035.07 2220.59,2046.24 2221,2057.5C 2216.21,2069.91 2208.05,2079.41 2196.5,2086C 2185.29,2092.51 2173.29,2096.85 2160.5,2099C 2122.36,2104.06 2083.69,2107.22 2044.5,2108.5C 2020.53,2109.49 1996.7,2109.82 1973,2109.5C 1972.68,2107.7 1972.02,2107.37 1971,2108.5C 1930.77,2106.99 1890.94,2102.16 1851.5,2094C 1839.73,2090.9 1828.39,2087.57 1817.5,2084C 1816.27,2083.22 1815.27,2082.22 1814.5,2081C 1805.6,2057.35 1797.1,2033.51 1789,2009.5C 1775.06,1963.45 1761.23,1917.12 1747.5,1870.5C 1736.81,1870.01 1725.98,1870.01 1715,1870.5C 1688.34,1868.56 1661.84,1863.06 1635.5,1854C 1618.52,1847.57 1601.85,1840.57 1585.5,1833C 1559.96,1820.06 1534.29,1807.39 1508.5,1795C 1490.59,1789.54 1473.59,1782.21 1457.5,1773C 1450.59,1767.36 1446.09,1760.19 1444,1751.5C 1441.03,1735.36 1440.19,1720.53 1441.5,1707C 1440.29,1679.5 1438.63,1652 1436.5,1624.5C 1285.35,1488.65 1199.02,1319.49 1177.5,1117C 1162.24,924.219 1210.41,748.719 1322,590.5C 1339.91,567.251 1358.58,544.584 1378,522.5C 1399.76,499.739 1422.42,478.073 1446,457.5C 1446.96,422.993 1453.63,389.66 1466,357.5C 1477.49,331.174 1495.99,311.508 1521.5,298.5C 1534.23,254.286 1559.23,218.786 1596.5,192C 1603.17,187.333 1609.83,182.667 1616.5,178C 1652.17,156.828 1688.17,136.161 1724.5,116C 1775.57,91.1987 1828.74,72.3654 1884,59.5C 1884.33,59.8333 1884.67,60.1667 1885,60.5C 1914.2,54.2031 1943.87,51.2031 1974,51.5C 1974.5,51 1975,50.5 1975.5,50C 1979,49.8333 1982.5,49.6667 1986,49.5C 1990.34,49.9138 1994.51,49.9138 1998.5,49.5C 1999.73,51.1759 2001.06,51.5092 2002.5,50.5 Z"/></g>
<g><path style="opacity:0.996" fill="#978e88" d="M 1968.5,97.5 C 1960.05,99.1474 1951.38,100.147 1942.5,100.5C 1950.94,98.7208 1959.6,97.7208 1968.5,97.5 Z"/></g>
<g><path style="opacity:1" fill="#f7e3cc" d="M 1968.5,97.5 C 1981.17,97.5 1993.83,97.5 2006.5,97.5C 2007.61,98.29 2008.94,98.79 2010.5,99C 2018.84,99.4808 2027.17,99.9808 2035.5,100.5C 2042.21,101.315 2048.87,102.315 2055.5,103.5C 2058.91,104.903 2062.58,105.57 2066.5,105.5C 2071.05,106.491 2075.71,107.491 2080.5,108.5C 2082.84,110.04 2085.5,110.706 2088.5,110.5C 2098.12,112.288 2107.46,114.955 2116.5,118.5C 2119.5,120.277 2122.84,121.277 2126.5,121.5C 2154.17,131.156 2181.17,142.823 2207.5,156.5C 2213.16,159.811 2218.49,163.478 2223.5,167.5C 2224.3,168.423 2224.47,169.423 2224,170.5C 2208.52,163.258 2193.18,158.591 2178,156.5C 2176.29,155.237 2174.63,154.903 2173,155.5C 2171.29,154.237 2169.63,153.903 2168,154.5C 2166.33,153.833 2164.67,153.167 2163,152.5C 2160.33,152.5 2157.67,152.5 2155,152.5C 2153.33,151.833 2151.67,151.167 2150,150.5C 2149.67,150.833 2149.33,151.167 2149,151.5C 2139.12,149.678 2129.45,148.344 2120,147.5C 2099.67,147.5 2079.33,147.5 2059,147.5C 2050.87,148.023 2042.87,149.023 2035,150.5C 2032.64,149.488 2029.97,149.821 2027,151.5C 2026,151.167 2025,150.833 2024,150.5C 2016.33,151.833 2008.67,153.167 2001,154.5C 1851.17,170.576 1747.51,251.576 1690,397.5C 1689.51,396.207 1689.34,394.873 1689.5,393.5C 1690.58,385.844 1691.58,378.178 1692.5,370.5C 1694.85,343.128 1691.18,316.628 1681.5,291C 1684.27,283.956 1687.44,277.123 1691,270.5C 1696.16,264.183 1700.83,257.516 1705,250.5C 1736.91,213.599 1773.74,182.433 1815.5,157C 1838.87,142.646 1862.87,129.313 1887.5,117C 1892.74,114.544 1898.08,112.377 1903.5,110.5C 1906.72,110.655 1909.38,109.655 1911.5,107.5C 1921.6,104.424 1931.93,102.091 1942.5,100.5C 1951.38,100.147 1960.05,99.1474 1968.5,97.5 Z"/></g>
<g><path style="opacity:1" fill="#b9a99a" d="M 2006.5,97.5 C 2016.38,97.8422 2026.05,98.8422 2035.5,100.5C 2027.17,99.9808 2018.84,99.4808 2010.5,99C 2008.94,98.79 2007.61,98.29 2006.5,97.5 Z"/></g>
<g><path style="opacity:1" fill="#87807d" d="M 2055.5,103.5 C 2059.42,103.43 2063.09,104.097 2066.5,105.5C 2062.58,105.57 2058.91,104.903 2055.5,103.5 Z"/></g>
<g><path style="opacity:1" fill="#8a827e" d="M 2080.5,108.5 C 2083.43,108.565 2086.09,109.232 2088.5,110.5C 2085.5,110.706 2082.84,110.04 2080.5,108.5 Z"/></g>
<g><path style="opacity:0.996" fill="#938b85" d="M 1911.5,107.5 C 1909.38,109.655 1906.72,110.655 1903.5,110.5C 1905.94,109.129 1908.6,108.129 1911.5,107.5 Z"/></g>
<g><path style="opacity:1" fill="#847f7d" d="M 2116.5,118.5 C 2120.16,118.723 2123.5,119.723 2126.5,121.5C 2122.84,121.277 2119.5,120.277 2116.5,118.5 Z"/></g>
<g><path style="opacity:1" fill="#dad6d5" d="M 1760.5,166.5 C 1703.78,187.257 1655.61,220.257 1616,265.5C 1613.49,269.195 1610.99,272.862 1608.5,276.5C 1599.49,279.561 1590.49,282.727 1581.5,286C 1573.95,288.525 1566.28,290.191 1558.5,291C 1564.33,279.701 1570.83,268.868 1578,258.5C 1610.04,221.625 1647.87,192.125 1691.5,170C 1719.91,154.92 1749.58,143.087 1780.5,134.5C 1792.31,136.605 1794.31,142.105 1786.5,151C 1780.83,153.333 1775.17,155.667 1769.5,158C 1766.63,161.038 1763.63,163.871 1760.5,166.5 Z"/></g>
<g><path style="opacity:1" fill="#efd5b6" d="M 2223.5,167.5 C 2251.71,188.707 2275.71,213.707 2295.5,242.5C 2250.9,249.185 2228.56,274.018 2228.5,317C 2229.94,321.995 2231.78,326.828 2234,331.5C 2236.77,328.223 2239.93,325.557 2243.5,323.5C 2243.06,326.807 2243.73,329.807 2245.5,332.5C 2246.11,332.376 2246.44,332.043 2246.5,331.5C 2254.36,324.251 2263.7,319.751 2274.5,318C 2289.75,316.359 2304.41,318.359 2318.5,324C 2325.2,327.349 2331.86,330.682 2338.5,334C 2351.18,342.591 2362.01,353.091 2371,365.5C 2374.3,370.436 2376.8,375.77 2378.5,381.5C 2378.55,384.346 2379.55,386.68 2381.5,388.5C 2385.23,399.517 2387.9,410.85 2389.5,422.5C 2389.28,427.1 2389.95,431.433 2391.5,435.5C 2391.5,436.5 2391.5,437.5 2391.5,438.5C 2392.51,447.303 2393.51,455.969 2394.5,464.5C 2394.5,466.5 2394.5,468.5 2394.5,470.5C 2394.33,478.507 2394.5,486.507 2395,494.5C 2395.21,496.058 2395.71,497.391 2396.5,498.5C 2396.5,501.833 2396.5,505.167 2396.5,508.5C 2396.76,521.468 2397.42,534.634 2398.5,548C 2398.44,560.058 2398.44,572.391 2398.5,585C 2397.71,595.109 2397.05,605.276 2396.5,615.5C 2396.5,619.167 2396.5,622.833 2396.5,626.5C 2395.73,627.263 2395.23,628.263 2395,629.5C 2394.36,638.196 2393.53,646.863 2392.5,655.5C 2391.04,671.238 2389.04,686.905 2386.5,702.5C 2385.88,702.611 2385.38,702.944 2385,703.5C 2384.5,705.473 2384.34,707.473 2384.5,709.5C 2371.2,779.928 2346.03,845.595 2309,906.5C 2297.94,921.893 2287.28,937.559 2277,953.5C 2266.44,968.782 2253.94,982.282 2239.5,994C 2199.05,1022.55 2154.71,1042.88 2106.5,1055C 2082.29,1060.66 2057.95,1062.49 2033.5,1060.5C 2028.38,1059.19 2023.05,1058.53 2017.5,1058.5C 2001.13,1054.99 1985.13,1050.16 1969.5,1044C 1937.62,1030.12 1908.29,1012.12 1881.5,990C 1871.41,979.58 1860.91,969.413 1850,959.5C 1822.64,927.146 1796.81,893.646 1772.5,859C 1771.83,858.333 1771.17,858.333 1770.5,859C 1771.32,864.531 1772.32,870.031 1773.5,875.5C 1773.34,877.527 1773.5,879.527 1774,881.5C 1774.38,882.056 1774.88,882.389 1775.5,882.5C 1778.51,892.863 1782.51,902.863 1787.5,912.5C 1799.13,930.766 1811.96,948.099 1826,964.5C 1849.15,990.986 1874.32,1015.49 1901.5,1038C 1911.53,1044.33 1921.87,1050.33 1932.5,1056C 1930.73,1056.64 1929.07,1056.47 1927.5,1055.5C 1923.12,1053.79 1918.45,1053.12 1913.5,1053.5C 1906.22,1052.57 1898.89,1052.24 1891.5,1052.5C 1886.95,1052.62 1882.62,1053.29 1878.5,1054.5C 1864.03,1056.31 1852.86,1063.31 1845,1075.5C 1841.27,1074.54 1837.44,1074.21 1833.5,1074.5C 1827.67,1073.59 1821.67,1072.92 1815.5,1072.5C 1810.15,1072.43 1804.81,1072.1 1799.5,1071.5C 1795.12,1069.77 1790.45,1068.77 1785.5,1068.5C 1780.92,1068.56 1776.59,1067.9 1772.5,1066.5C 1772.61,1065.88 1772.94,1065.38 1773.5,1065C 1744.79,1040.62 1721.62,1011.79 1704,978.5C 1679.54,929.982 1664.04,880.816 1657.5,831C 1656.08,826.944 1655.08,822.944 1654.5,819C 1654.83,818 1655.17,817 1655.5,816C 1654.83,814.667 1654.17,813.333 1653.5,812C 1653.83,811 1654.17,810 1654.5,809C 1652.96,799.213 1651.46,789.38 1650,779.5C 1646.82,771.443 1641.32,766.777 1633.5,765.5C 1624.89,764.15 1616.89,765.983 1609.5,771C 1600.12,780.018 1589.46,787.018 1577.5,792C 1548.72,794.269 1525.05,784.436 1506.5,762.5C 1507.04,762.44 1507.38,762.107 1507.5,761.5C 1500.79,751.11 1496.79,740.61 1495.5,730C 1494.14,728.168 1493.81,726.335 1494.5,724.5C 1493.88,721.63 1493.21,718.796 1492.5,716C 1493.1,710.932 1493.1,705.599 1492.5,700C 1493.28,694.736 1494.28,689.402 1495.5,684C 1495.17,683.667 1494.83,683.333 1494.5,683C 1497.3,673.833 1499.63,664.5 1501.5,655C 1501.17,654.667 1500.83,654.333 1500.5,654C 1501.83,650.333 1503.17,646.667 1504.5,643C 1503.92,639.703 1504.92,636.703 1507.5,634C 1506.91,633.536 1506.24,633.369 1505.5,633.5C 1509.1,628.512 1513.76,624.679 1519.5,622C 1523.17,621.333 1526.83,621.333 1530.5,622C 1531,622.5 1531.5,623 1532,623.5C 1530.36,628.707 1528.69,634.04 1527,639.5C 1525.51,645.754 1524.68,652.088 1524.5,658.5C 1523.53,668.708 1524.2,679.375 1526.5,690.5C 1526.5,690.833 1526.5,691.167 1526.5,691.5C 1526.22,694.829 1526.88,697.829 1528.5,700.5C 1531.36,707.885 1535.03,714.885 1539.5,721.5C 1539.81,722.478 1540.48,723.145 1541.5,723.5C 1541.83,721.167 1542.17,718.833 1542.5,716.5C 1541.35,699.502 1541.35,682.502 1542.5,665.5C 1543.45,657.358 1545.78,649.691 1549.5,642.5C 1555.9,634.987 1563.57,633.487 1572.5,638C 1574.32,640.821 1576.49,643.321 1579,645.5C 1585.23,656.617 1590.89,667.95 1596,679.5C 1599.02,682.349 1601.85,685.349 1604.5,688.5C 1608.43,674.842 1608.43,661.175 1604.5,647.5C 1604.65,644.284 1603.65,641.617 1601.5,639.5C 1594.34,621.01 1582,607.344 1564.5,598.5C 1581.94,602.186 1598.61,608.852 1614.5,618.5C 1615.11,618.376 1615.44,618.043 1615.5,617.5C 1618.94,626.37 1621.61,635.537 1623.5,645C 1632.46,645.453 1641.12,645.286 1649.5,644.5C 1654.08,644.562 1658.41,643.895 1662.5,642.5C 1673.06,640.132 1681.89,634.798 1689,626.5C 1689,618.472 1688.33,610.472 1687,602.5C 1683.96,588.012 1680.46,573.678 1676.5,559.5C 1676.71,555.655 1675.71,552.321 1673.5,549.5C 1672.76,543.449 1671.76,537.449 1670.5,531.5C 1670.54,523.626 1669.87,515.96 1668.5,508.5C 1668.5,508.167 1668.5,507.833 1668.5,507.5C 1669.29,506.391 1669.79,505.058 1670,503.5C 1670.5,498.511 1670.67,493.511 1670.5,488.5C 1671.59,481.516 1672.59,474.516 1673.5,467.5C 1675.37,462.794 1676.37,457.794 1676.5,452.5C 1677.29,449.198 1677.96,445.865 1678.5,442.5C 1680.04,440.162 1680.71,437.495 1680.5,434.5C 1681.63,429.531 1682.63,424.531 1683.5,419.5C 1685.5,415.167 1686.5,410.5 1686.5,405.5C 1687.38,401.546 1688.05,397.546 1688.5,393.5C 1688.83,393.5 1689.17,393.5 1689.5,393.5C 1689.34,394.873 1689.51,396.207 1690,397.5C 1747.51,251.576 1851.17,170.576 2001,154.5C 2008.67,153.167 2016.33,151.833 2024,150.5C 2025,150.833 2026,151.167 2027,151.5C 2029.97,149.821 2032.64,149.488 2035,150.5C 2042.87,149.023 2050.87,148.023 2059,147.5C 2079.33,147.5 2099.67,147.5 2120,147.5C 2129.45,148.344 2139.12,149.678 2149,151.5C 2149.33,151.167 2149.67,150.833 2150,150.5C 2151.67,151.167 2153.33,151.833 2155,152.5C 2157.67,152.5 2160.33,152.5 2163,152.5C 2164.67,153.167 2166.33,153.833 2168,154.5C 2169.63,153.903 2171.29,154.237 2173,155.5C 2174.63,154.903 2176.29,155.237 2178,156.5C 2193.18,158.591 2208.52,163.258 2224,170.5C 2224.47,169.423 2224.3,168.423 2223.5,167.5 Z"/></g>
<g><path style="opacity:1" fill="#6d6a6b" d="M 1760.5,166.5 C 1751.31,174.519 1741.64,182.019 1731.5,189C 1726.67,193.833 1721.83,198.667 1717,203.5C 1706.27,219.902 1695.94,236.568 1686,253.5C 1681.85,258.947 1677.35,264.114 1672.5,269C 1668.55,271.81 1664.21,273.81 1659.5,275C 1646.48,274.391 1633.64,273.891 1621,273.5C 1616.9,274.688 1612.73,275.688 1608.5,276.5C 1610.99,272.862 1613.49,269.195 1616,265.5C 1655.61,220.257 1703.78,187.257 1760.5,166.5 Z"/></g>
<g><path style="opacity:1" fill="#f6e2cb" d="M 2295.5,242.5 C 2305.96,254.818 2315.96,267.651 2325.5,281C 2323.45,281.49 2321.45,281.323 2319.5,280.5C 2306.81,276.828 2294.14,276.828 2281.5,280.5C 2262.62,284.718 2250.62,296.051 2245.5,314.5C 2243.88,317.171 2243.22,320.171 2243.5,323.5C 2239.93,325.557 2236.77,328.223 2234,331.5C 2231.78,326.828 2229.94,321.995 2228.5,317C 2228.56,274.018 2250.9,249.185 2295.5,242.5 Z"/></g>
<g><path style="opacity:1" fill="#f6e2cb" d="M 1944.5,299.5 C 1941.46,298.655 1938.46,297.655 1935.5,296.5C 1931.78,295.003 1927.78,294.337 1923.5,294.5C 1920.64,294.503 1917.98,294.836 1915.5,295.5C 1911.83,296.167 1908.17,296.833 1904.5,297.5C 1901.25,298.054 1898.25,299.054 1895.5,300.5C 1863.96,314.532 1839.79,336.865 1823,367.5C 1819.41,374.441 1816.91,381.774 1815.5,389.5C 1813.75,395.574 1813.09,401.907 1813.5,408.5C 1811.63,404.763 1809.46,401.096 1807,397.5C 1800.01,371 1806.01,345.333 1825,320.5C 1845,296.87 1869.66,281.203 1899,273.5C 1903.47,274.446 1907.81,274.446 1912,273.5C 1927.59,276.608 1939.43,284.941 1947.5,298.5C 1946.68,299.386 1945.68,299.719 1944.5,299.5 Z"/></g>
<g><path style="opacity:1" fill="#89827f" d="M 2319.5,280.5 C 2312.65,280.026 2305.82,279.36 2299,278.5C 2293.18,279.332 2287.35,279.999 2281.5,280.5C 2294.14,276.828 2306.81,276.828 2319.5,280.5 Z"/></g>
<g><path style="opacity:0.996" fill="#ab9e94" d="M 1915.5,295.5 C 1917.98,294.836 1920.64,294.503 1923.5,294.5C 1927.78,294.337 1931.78,295.003 1935.5,296.5C 1928.86,295.724 1922.2,295.391 1915.5,295.5 Z"/></g>
<g><path style="opacity:1" fill="#231f20" d="M 1915.5,295.5 C 1922.2,295.391 1928.86,295.724 1935.5,296.5C 1938.46,297.655 1941.46,298.655 1944.5,299.5C 1948.1,300.969 1951.43,302.969 1954.5,305.5C 1956.17,307.833 1958.17,309.833 1960.5,311.5C 1963.94,315.618 1965.94,320.451 1966.5,326C 1965.96,330.814 1964.62,335.314 1962.5,339.5C 1942.47,335.334 1922.47,335.501 1902.5,340C 1883.89,347.287 1868.05,358.454 1855,373.5C 1843.74,388.331 1834.24,404.331 1826.5,421.5C 1821.92,420.232 1818.59,417.565 1816.5,413.5C 1814.18,405.608 1813.84,397.608 1815.5,389.5C 1816.91,381.774 1819.41,374.441 1823,367.5C 1839.79,336.865 1863.96,314.532 1895.5,300.5C 1898.99,300.554 1901.99,299.554 1904.5,297.5C 1908.17,296.833 1911.83,296.167 1915.5,295.5 Z"/></g>
<g><path style="opacity:1" fill="#7d7572" d="M 1904.5,297.5 C 1901.99,299.554 1898.99,300.554 1895.5,300.5C 1898.25,299.054 1901.25,298.054 1904.5,297.5 Z"/></g>
<g><path style="opacity:0.996" fill="#908984" d="M 1653.5,302.5 C 1652.74,303.268 1651.74,303.768 1650.5,304C 1644.85,304.757 1639.18,305.257 1633.5,305.5C 1639.95,303.927 1646.61,302.927 1653.5,302.5 Z"/></g>
<g><path style="opacity:1" fill="#d9d6d4" d="M 1653.5,302.5 C 1655.07,302.937 1656.24,303.937 1657,305.5C 1659.27,311.285 1660.77,317.285 1661.5,323.5C 1661.38,324.586 1660.71,325.253 1659.5,325.5C 1541.1,345.549 1489.77,413.549 1505.5,529.5C 1502.34,531.062 1499.18,532.729 1496,534.5C 1493.97,516.549 1492.47,498.549 1491.5,480.5C 1491.35,465.123 1492.01,449.79 1493.5,434.5C 1493.5,433.833 1493.5,433.167 1493.5,432.5C 1495.32,427.107 1496.32,421.441 1496.5,415.5C 1499.73,399.473 1506.06,384.806 1515.5,371.5C 1540.85,341.649 1572.52,321.649 1610.5,311.5C 1615.01,310.408 1619.35,309.074 1623.5,307.5C 1626.83,306.833 1630.17,306.167 1633.5,305.5C 1639.18,305.257 1644.85,304.757 1650.5,304C 1651.74,303.768 1652.74,303.268 1653.5,302.5 Z"/></g>
<g><path style="opacity:0.996" fill="#8e8681" d="M 1954.5,305.5 C 1957.5,306.5 1959.5,308.5 1960.5,311.5C 1958.17,309.833 1956.17,307.833 1954.5,305.5 Z"/></g>
<g><path style="opacity:0.996" fill="#9b928b" d="M 1623.5,307.5 C 1619.35,309.074 1615.01,310.408 1610.5,311.5C 1611.35,310.034 1612.68,309.2 1614.5,309C 1617.48,308.304 1620.48,307.804 1623.5,307.5 Z"/></g>
<g><path style="opacity:0.988" fill="#5b5353" d="M 2245.5,314.5 C 2245.18,320.358 2245.51,326.025 2246.5,331.5C 2246.44,332.043 2246.11,332.376 2245.5,332.5C 2243.73,329.807 2243.06,326.807 2243.5,323.5C 2243.22,320.171 2243.88,317.171 2245.5,314.5 Z"/></g>
<g><path style="opacity:1" fill="#6d6a6b" d="M 1661.5,323.5 C 1662.04,329.123 1663.04,334.957 1664.5,341C 1664.48,352.375 1664.48,363.709 1664.5,375C 1659.9,409.526 1654.9,444.859 1649.5,481C 1649.83,482 1650.17,483 1650.5,484C 1646.51,512.825 1650.34,542.992 1662,574.5C 1665.57,584.371 1665.24,594.038 1661,603.5C 1657,606.446 1652.5,608.112 1647.5,608.5C 1643.95,564.434 1620.95,535.934 1578.5,523C 1553.62,516.223 1529.28,518.389 1505.5,529.5C 1489.77,413.549 1541.1,345.549 1659.5,325.5C 1660.71,325.253 1661.38,324.586 1661.5,323.5 Z"/></g>
<g><path style="opacity:1" fill="#8a8380" d="M 1692.5,370.5 C 1691.58,378.178 1690.58,385.844 1689.5,393.5C 1689.17,393.5 1688.83,393.5 1688.5,393.5C 1689.11,385.565 1690.44,377.898 1692.5,370.5 Z"/></g>
<g><path style="opacity:0.996" fill="#968c86" d="M 2378.5,381.5 C 2380.07,383.509 2381.07,385.843 2381.5,388.5C 2379.55,386.68 2378.55,384.346 2378.5,381.5 Z"/></g>
<g><path style="opacity:0.996" fill="#998f89" d="M 1815.5,389.5 C 1813.84,397.608 1814.18,405.608 1816.5,413.5C 1815.07,412.087 1814.07,410.42 1813.5,408.5C 1813.09,401.907 1813.75,395.574 1815.5,389.5 Z"/></g>
<g><path style="opacity:0.996" fill="#938a85" d="M 1686.5,405.5 C 1686.5,410.5 1685.5,415.167 1683.5,419.5C 1684.01,414.609 1685.01,409.942 1686.5,405.5 Z"/></g>
<g><path style="opacity:0.996" fill="#988f89" d="M 1496.5,415.5 C 1496.32,421.441 1495.32,427.107 1493.5,432.5C 1493.76,426.578 1494.76,420.911 1496.5,415.5 Z"/></g>
<g><path style="opacity:1" fill="#241f20" d="M 2342.5,559.5 C 2339.6,560.129 2336.94,561.129 2334.5,562.5C 2324.01,565.259 2313.35,566.092 2302.5,565C 2288.43,562.593 2279.93,554.427 2277,540.5C 2276.33,537.5 2276.33,534.5 2277,531.5C 2278.65,530.283 2280.48,529.45 2282.5,529C 2288.2,528.075 2293.87,527.242 2299.5,526.5C 2299.43,526.938 2299.6,527.272 2300,527.5C 2305.27,526.855 2310.43,526.188 2315.5,525.5C 2322.86,524.937 2330.19,524.104 2337.5,523C 2341.51,521.913 2345.34,520.413 2349,518.5C 2349.67,517.5 2349.67,516.5 2349,515.5C 2345.96,506.863 2342.46,498.529 2338.5,490.5C 2336.83,485.791 2335.16,481.124 2333.5,476.5C 2333.59,473.848 2332.92,471.515 2331.5,469.5C 2330.83,466.5 2330.17,463.5 2329.5,460.5C 2329.19,456.64 2328.52,452.974 2327.5,449.5C 2327.17,446.833 2326.83,444.167 2326.5,441.5C 2326.33,436.156 2326.5,430.823 2327,425.5C 2328.18,424.269 2329.35,424.269 2330.5,425.5C 2346.18,461.025 2363.51,495.525 2382.5,529C 2380.75,532.755 2378.58,536.255 2376,539.5C 2365.87,547.817 2354.71,554.484 2342.5,559.5 Z"/></g>
<g><path style="opacity:0.996" fill="#988e88" d="M 2389.5,422.5 C 2390.71,426.618 2391.38,430.951 2391.5,435.5C 2389.95,431.433 2389.28,427.1 2389.5,422.5 Z"/></g>
<g><path style="opacity:1" fill="#241f20" d="M 2066.5,551.5 C 2065.23,553.905 2064.57,556.572 2064.5,559.5C 2052.15,576.973 2035.15,585.973 2013.5,586.5C 2005.14,586.621 1996.81,586.288 1988.5,585.5C 1985.1,585.658 1981.76,585.324 1978.5,584.5C 1974.44,582.862 1970.1,581.862 1965.5,581.5C 1955.08,579.543 1946.91,574.21 1941,565.5C 1938.34,556.779 1939.5,548.612 1944.5,541C 1946.13,540.506 1947.8,540.34 1949.5,540.5C 1953.96,541.644 1958.63,542.31 1963.5,542.5C 1976.61,545.103 1989.78,547.103 2003,548.5C 2014.69,549.433 2025.19,546.433 2034.5,539.5C 2035.61,538.277 2035.78,536.944 2035,535.5C 2030.06,526.605 2024.89,517.938 2019.5,509.5C 2014.8,499.037 2010.14,488.704 2005.5,478.5C 2005.59,475.848 2004.92,473.515 2003.5,471.5C 2002.19,468.275 2001.19,464.941 2000.5,461.5C 2000.35,457.613 1999.69,453.946 1998.5,450.5C 1998.5,449.5 1998.5,448.5 1998.5,447.5C 1998.5,441.477 1998.84,435.477 1999.5,429.5C 1999.28,428.325 1999.61,427.325 2000.5,426.5C 2001.74,429.319 2003.24,431.986 2005,434.5C 2012.39,452.99 2020.39,471.324 2029,489.5C 2032.82,493.814 2036.16,498.481 2039,503.5C 2046.96,510.289 2054.46,517.623 2061.5,525.5C 2067,533.499 2068.67,542.166 2066.5,551.5 Z"/></g>
<g><path style="opacity:1" fill="#656162" d="M 1999.5,429.5 C 1998.84,435.477 1998.5,441.477 1998.5,447.5C 1997.57,446.432 1997.23,445.099 1997.5,443.5C 1997.23,438.566 1997.9,433.9 1999.5,429.5 Z"/></g>
<g><path style="opacity:0.996" fill="#978e87" d="M 1680.5,434.5 C 1680.71,437.495 1680.04,440.162 1678.5,442.5C 1678.57,439.572 1679.23,436.905 1680.5,434.5 Z"/></g>
<g><path style="opacity:1" fill="#f7e3cc" d="M 2326.5,441.5 C 2326.83,444.167 2327.17,446.833 2327.5,449.5C 2327.12,453.489 2327.78,457.155 2329.5,460.5C 2330.17,463.5 2330.83,466.5 2331.5,469.5C 2331.41,472.152 2332.08,474.485 2333.5,476.5C 2335.16,481.124 2336.83,485.791 2338.5,490.5C 2338.3,493.011 2337.97,495.178 2337.5,497C 2330.61,500.497 2323.78,503.33 2317,505.5C 2311.56,508.263 2306.23,510.263 2301,511.5C 2296.63,511.811 2292.13,511.311 2287.5,510C 2283.83,508.332 2281.67,505.499 2281,501.5C 2279.36,482.585 2286.19,467.085 2301.5,455C 2308.59,450.973 2315.76,447.14 2323,443.5C 2323.33,443.833 2323.67,444.167 2324,444.5C 2324.85,443.429 2325.69,442.429 2326.5,441.5 Z"/></g>
<g><path style="opacity:1" fill="#f7e3cc" d="M 1997.5,443.5 C 1997.23,445.099 1997.57,446.432 1998.5,447.5C 1998.5,448.5 1998.5,449.5 1998.5,450.5C 1998.25,454.458 1998.92,458.124 2000.5,461.5C 2001.19,464.941 2002.19,468.275 2003.5,471.5C 2003.41,474.152 2004.08,476.485 2005.5,478.5C 2010.14,488.704 2014.8,499.037 2019.5,509.5C 2020.43,511.239 2020.43,512.905 2019.5,514.5C 2000.91,522.296 1982.75,523.962 1965,519.5C 1947.44,516.914 1937.94,507.081 1936.5,490C 1937.84,478.979 1942.84,469.979 1951.5,463C 1965.6,453.009 1980.43,447.175 1996,445.5C 1996.28,444.584 1996.78,443.918 1997.5,443.5 Z"/></g>
<g><path style="opacity:1" fill="#817c7a" d="M 1998.5,450.5 C 1999.69,453.946 2000.35,457.613 2000.5,461.5C 1998.92,458.124 1998.25,454.458 1998.5,450.5 Z"/></g>
<g><path style="opacity:0.988" fill="#4f4748" d="M 2391.5,438.5 C 2392.12,438.611 2392.62,438.944 2393,439.5C 2393.97,447.807 2394.47,456.141 2394.5,464.5C 2393.51,455.969 2392.51,447.303 2391.5,438.5 Z"/></g>
<g><path style="opacity:0.996" fill="#958c86" d="M 2327.5,449.5 C 2328.52,452.974 2329.19,456.64 2329.5,460.5C 2327.78,457.155 2327.12,453.489 2327.5,449.5 Z"/></g>
<g><path style="opacity:0.996" fill="#918984" d="M 1676.5,452.5 C 1676.37,457.794 1675.37,462.794 1673.5,467.5C 1673.88,462.256 1674.88,457.256 1676.5,452.5 Z"/></g>
<g><path style="opacity:1" fill="#231f20" d="M 2323.5,687.5 C 2322.08,689.515 2321.41,691.848 2321.5,694.5C 2316.73,704.162 2313.73,714.495 2312.5,725.5C 2291.66,738.757 2270.33,751.257 2248.5,763C 2234.09,769.411 2219.42,774.911 2204.5,779.5C 2201.18,780.329 2197.85,781.162 2194.5,782C 2193.94,782.383 2193.61,782.883 2193.5,783.5C 2189.43,783.782 2185.43,784.448 2181.5,785.5C 2176.13,785.887 2170.79,786.554 2165.5,787.5C 2156.31,787.561 2147.31,788.228 2138.5,789.5C 2129.45,789.764 2120.45,789.264 2111.5,788C 2094.71,770.66 2089.54,750.16 2096,726.5C 2097.89,721.055 2100.55,716.055 2104,711.5C 2105.03,714.662 2106.19,717.662 2107.5,720.5C 2108.77,722.905 2109.43,725.572 2109.5,728.5C 2109.9,732.761 2110.9,736.761 2112.5,740.5C 2114.54,749.521 2119.54,756.187 2127.5,760.5C 2129.84,762.04 2132.5,762.706 2135.5,762.5C 2152,764.569 2168.33,763.069 2184.5,758C 2195.25,754.527 2205.92,750.86 2216.5,747C 2236.67,737.084 2257,727.417 2277.5,718C 2282.36,712.428 2285.02,705.928 2285.5,698.5C 2287.02,696.538 2287.68,694.205 2287.5,691.5C 2287.55,688.215 2286.89,685.215 2285.5,682.5C 2284.19,676.511 2281.52,671.178 2277.5,666.5C 2246.33,632.809 2217.83,596.809 2192,558.5C 2185.89,548.606 2180.55,538.272 2176,527.5C 2171.93,516.666 2168.43,505.666 2165.5,494.5C 2165.24,489.876 2164.24,485.542 2162.5,481.5C 2161.81,473.505 2161.64,465.505 2162,457.5C 2167.33,453.162 2172,453.829 2176,459.5C 2180.25,477.579 2187.25,494.579 2197,510.5C 2219.51,545.644 2244.18,578.977 2271,610.5C 2279.34,619.177 2287.34,628.177 2295,637.5C 2302.2,644.373 2309.7,650.873 2317.5,657C 2323.01,661.522 2325.68,667.356 2325.5,674.5C 2325.35,678.931 2324.68,683.264 2323.5,687.5 Z"/></g>
<g><path style="opacity:0.988" fill="#424044" d="M 1493.5,434.5 C 1492.01,449.79 1491.35,465.123 1491.5,480.5C 1490.35,466.318 1490.51,451.985 1492,437.5C 1492.23,436.263 1492.73,435.263 1493.5,434.5 Z"/></g>
<g><path style="opacity:0.996" fill="#958c86" d="M 2331.5,469.5 C 2332.92,471.515 2333.59,473.848 2333.5,476.5C 2332.08,474.485 2331.41,472.152 2331.5,469.5 Z"/></g>
<g><path style="opacity:0.996" fill="#918a85" d="M 2003.5,471.5 C 2004.92,473.515 2005.59,475.848 2005.5,478.5C 2004.08,476.485 2003.41,474.152 2003.5,471.5 Z"/></g>
<g><path style="opacity:0.996" fill="#918984" d="M 2394.5,470.5 C 2395.43,479.664 2396.09,488.997 2396.5,498.5C 2395.71,497.391 2395.21,496.058 2395,494.5C 2394.5,486.507 2394.33,478.507 2394.5,470.5 Z"/></g>
<g><path style="opacity:0.996" fill="#a0958d" d="M 2162.5,481.5 C 2164.24,485.542 2165.24,489.876 2165.5,494.5C 2163.76,490.458 2162.76,486.124 2162.5,481.5 Z"/></g>
<g><path style="opacity:0.996" fill="#928984" d="M 1670.5,488.5 C 1670.67,493.511 1670.5,498.511 1670,503.5C 1669.79,505.058 1669.29,506.391 1668.5,507.5C 1668.7,500.974 1669.36,494.641 1670.5,488.5 Z"/></g>
<g><path style="opacity:0.996" fill="#8e8681" d="M 1668.5,508.5 C 1669.87,515.96 1670.54,523.626 1670.5,531.5C 1668.94,524.056 1668.28,516.389 1668.5,508.5 Z"/></g>
<g><path style="opacity:1" fill="#ed3c39" d="M 1453.5,529.5 C 1453.5,535.833 1453.5,542.167 1453.5,548.5C 1453.51,550.308 1453.01,551.975 1452,553.5C 1446.94,560.228 1442.27,567.228 1438,574.5C 1432.78,588.078 1429.28,602.078 1427.5,616.5C 1366.66,681.462 1320.5,755.795 1289,839.5C 1259.56,919.164 1241.06,998.33 1233.5,1077C 1231.69,1091.32 1230.02,1105.65 1228.5,1120C 1228.67,1126.26 1228.67,1132.76 1228.5,1139.5C 1228.03,1140.46 1227.36,1140.46 1226.5,1139.5C 1225.34,1133.57 1224.68,1127.57 1224.5,1121.5C 1224.67,1117.15 1224.5,1112.82 1224,1108.5C 1223.77,1107.26 1223.27,1106.26 1222.5,1105.5C 1222.5,1102.83 1222.5,1100.17 1222.5,1097.5C 1222.83,1087.28 1222.16,1077.28 1220.5,1067.5C 1220.5,1052.17 1220.5,1036.83 1220.5,1021.5C 1222.71,1004.05 1224.04,986.384 1224.5,968.5C 1244.32,790.022 1319.32,638.855 1449.5,515C 1450.6,514.568 1451.27,515.068 1451.5,516.5C 1452.49,520.791 1453.16,525.124 1453.5,529.5 Z"/></g>
<g><path style="opacity:0.996" fill="#968c86" d="M 2315.5,525.5 C 2310.43,526.188 2305.27,526.855 2300,527.5C 2299.6,527.272 2299.43,526.938 2299.5,526.5C 2304.64,525.512 2309.97,525.179 2315.5,525.5 Z"/></g>
<g><path style="opacity:1" fill="#b2332f" d="M 1453.5,529.5 C 1455.91,535.854 1455.91,542.187 1453.5,548.5C 1453.5,542.167 1453.5,535.833 1453.5,529.5 Z"/></g>
<g><path style="opacity:0.996" fill="#938a85" d="M 1949.5,540.5 C 1954.43,540.229 1959.1,540.896 1963.5,542.5C 1958.63,542.31 1953.96,541.644 1949.5,540.5 Z"/></g>
<g><path style="opacity:0.988" fill="#463d3e" d="M 2396.5,508.5 C 2399.82,543.299 2400.32,578.299 2398,613.5C 2397.72,614.416 2397.22,615.082 2396.5,615.5C 2397.05,605.276 2397.71,595.109 2398.5,585C 2398.44,572.391 2398.44,560.058 2398.5,548C 2397.42,534.634 2396.76,521.468 2396.5,508.5 Z"/></g>
<g><path style="opacity:0.996" fill="#8f8682" d="M 1673.5,549.5 C 1675.71,552.321 1676.71,555.655 1676.5,559.5C 1675.21,556.358 1674.21,553.025 1673.5,549.5 Z"/></g>
<g><path style="opacity:0.996" fill="#938a85" d="M 2066.5,551.5 C 2066.71,554.495 2066.04,557.162 2064.5,559.5C 2064.57,556.572 2065.23,553.905 2066.5,551.5 Z"/></g>
<g><path style="opacity:1" fill="#872d2a" d="M 2428.5,555.5 C 2427.83,561.167 2427.17,566.833 2426.5,572.5C 2426.17,566.463 2426.5,560.463 2427.5,554.5C 2428.11,554.624 2428.44,554.957 2428.5,555.5 Z"/></g>
<g><path style="opacity:1" fill="#d23732" d="M 2428.5,555.5 C 2539.27,677.856 2601.94,821.689 2616.5,987C 2616.4,991.955 2616.4,997.122 2616.5,1002.5C 2616.06,1002.43 2615.73,1002.6 2615.5,1003C 2616.13,1006.27 2616.8,1009.44 2617.5,1012.5C 2618.73,1034.47 2618.73,1056.47 2617.5,1078.5C 2616.79,1081.23 2616.13,1084.06 2615.5,1087C 2615.73,1087.4 2616.06,1087.57 2616.5,1087.5C 2609.86,1208.03 2575.36,1320.03 2513,1423.5C 2476.69,1428.04 2441.52,1437.88 2407.5,1453C 2393.78,1459.13 2380.28,1465.63 2367,1472.5C 2386.45,1417.89 2405.12,1362.89 2423,1307.5C 2437.17,1260.01 2451.83,1212.67 2467,1165.5C 2471.04,1152.5 2474.21,1139.34 2476.5,1126C 2479.2,1109.3 2475.37,1094.13 2465,1080.5C 2458.5,1073 2451.67,1065.84 2444.5,1059C 2415.76,1032.92 2386.42,1007.59 2356.5,983C 2348.65,975.818 2341.49,967.985 2335,959.5C 2332.36,956.137 2330.86,952.303 2330.5,948C 2331.66,940.845 2333.83,934.012 2337,927.5C 2347.51,909.822 2357.51,891.822 2367,873.5C 2387.29,821.021 2402.29,767.021 2412,711.5C 2414.51,695.457 2417.01,679.457 2419.5,663.5C 2420.47,661.052 2420.81,658.385 2420.5,655.5C 2421.65,641.463 2422.99,627.463 2424.5,613.5C 2425.48,609.702 2425.82,605.702 2425.5,601.5C 2424.59,600.298 2424.59,598.964 2425.5,597.5C 2426.48,593.366 2426.82,589.032 2426.5,584.5C 2426.32,580.711 2426.32,576.711 2426.5,572.5C 2427.17,566.833 2427.83,561.167 2428.5,555.5 Z"/></g>
<g><path style="opacity:1" fill="#f5e1cb" d="M 1615.5,617.5 C 1615.44,618.043 1615.11,618.376 1614.5,618.5C 1598.61,608.852 1581.94,602.186 1564.5,598.5C 1554.9,594.123 1544.9,592.789 1534.5,594.5C 1530.29,594.677 1526.63,596.01 1523.5,598.5C 1515.82,602.514 1510.16,608.514 1506.5,616.5C 1505.34,620.007 1504,623.341 1502.5,626.5C 1500.59,629.933 1500.25,633.6 1501.5,637.5C 1502.11,637.376 1502.44,637.043 1502.5,636.5C 1503.83,635.833 1504.83,634.833 1505.5,633.5C 1506.24,633.369 1506.91,633.536 1507.5,634C 1504.92,636.703 1503.92,639.703 1504.5,643C 1503.17,646.667 1501.83,650.333 1500.5,654C 1500.83,654.333 1501.17,654.667 1501.5,655C 1499.63,664.5 1497.3,673.833 1494.5,683C 1494.83,683.333 1495.17,683.667 1495.5,684C 1494.28,689.402 1493.28,694.736 1492.5,700C 1493.1,705.599 1493.1,710.932 1492.5,716C 1493.21,718.796 1493.88,721.63 1494.5,724.5C 1493.81,726.335 1494.14,728.168 1495.5,730C 1496.79,740.61 1500.79,751.11 1507.5,761.5C 1507.38,762.107 1507.04,762.44 1506.5,762.5C 1494.5,749.849 1485,735.515 1478,719.5C 1472.93,706.734 1468.6,693.734 1465,680.5C 1455.77,636.522 1468.6,600.688 1503.5,573C 1510.17,568.166 1517.5,564.666 1525.5,562.5C 1529.76,562.102 1533.76,561.102 1537.5,559.5C 1554.53,556.161 1570.53,558.661 1585.5,567C 1601.51,580.184 1611.51,597.017 1615.5,617.5 Z"/></g>
<g><path style="opacity:0.996" fill="#9a9089" d="M 1537.5,559.5 C 1533.76,561.102 1529.76,562.102 1525.5,562.5C 1529.16,560.584 1533.16,559.584 1537.5,559.5 Z"/></g>
<g><path style="opacity:0.996" fill="#958c86" d="M 2342.5,559.5 C 2340.38,561.655 2337.72,562.655 2334.5,562.5C 2336.94,561.129 2339.6,560.129 2342.5,559.5 Z"/></g>
<g><path style="opacity:0.988" fill="#5c5352" d="M 1965.5,581.5 C 1970.1,581.862 1974.44,582.862 1978.5,584.5C 1974.84,584.048 1971.17,583.548 1967.5,583C 1966.58,582.722 1965.92,582.222 1965.5,581.5 Z"/></g>
<g><path style="opacity:1" fill="#872d2a" d="M 2426.5,584.5 C 2426.82,589.032 2426.48,593.366 2425.5,597.5C 2425.06,597.565 2424.73,597.399 2424.5,597C 2425.14,592.732 2425.81,588.565 2426.5,584.5 Z"/></g>
<g><path style="opacity:0.996" fill="#a3988f" d="M 1988.5,585.5 C 1996.81,586.288 2005.14,586.621 2013.5,586.5C 2010.18,587.165 2006.68,587.499 2003,587.5C 1997.9,587.707 1993.06,587.04 1988.5,585.5 Z"/></g>
<g><path style="opacity:1" fill="#241f21" d="M 1564.5,598.5 C 1582,607.344 1594.34,621.01 1601.5,639.5C 1602.13,642.397 1603.13,645.064 1604.5,647.5C 1608.43,661.175 1608.43,674.842 1604.5,688.5C 1601.85,685.349 1599.02,682.349 1596,679.5C 1590.89,667.95 1585.23,656.617 1579,645.5C 1576.49,643.321 1574.32,640.821 1572.5,638C 1563.57,633.487 1555.9,634.987 1549.5,642.5C 1545.78,649.691 1543.45,657.358 1542.5,665.5C 1541.06,676.131 1540.39,686.964 1540.5,698C 1540.53,705.194 1540.87,712.361 1541.5,719.5C 1541.25,720.713 1540.59,721.38 1539.5,721.5C 1535.03,714.885 1531.36,707.885 1528.5,700.5C 1528.32,697.273 1527.66,694.273 1526.5,691.5C 1526.5,691.167 1526.5,690.833 1526.5,690.5C 1526.09,679.665 1525.42,668.998 1524.5,658.5C 1524.68,652.088 1525.51,645.754 1527,639.5C 1528.69,634.04 1530.36,628.707 1532,623.5C 1531.5,623 1531,622.5 1530.5,622C 1526.83,621.333 1523.17,621.333 1519.5,622C 1513.76,624.679 1509.1,628.512 1505.5,633.5C 1504.83,634.833 1503.83,635.833 1502.5,636.5C 1501.76,633.348 1501.76,630.015 1502.5,626.5C 1504,623.341 1505.34,620.007 1506.5,616.5C 1510.16,608.514 1515.82,602.514 1523.5,598.5C 1527.43,597.611 1531.1,596.278 1534.5,594.5C 1544.9,592.789 1554.9,594.123 1564.5,598.5 Z"/></g>
<g><path style="opacity:0.988" fill="#635b59" d="M 1534.5,594.5 C 1531.1,596.278 1527.43,597.611 1523.5,598.5C 1526.63,596.01 1530.29,594.677 1534.5,594.5 Z"/></g>
<g><path style="opacity:1" fill="#872d2a" d="M 2425.5,601.5 C 2425.82,605.702 2425.48,609.702 2424.5,613.5C 2424.06,613.565 2423.73,613.399 2423.5,613C 2424.14,609.065 2424.8,605.231 2425.5,601.5 Z"/></g>
<g><path style="opacity:1" fill="#d23732" d="M 1427.5,616.5 C 1427.55,619.648 1427.22,622.981 1426.5,626.5C 1425.79,629.228 1425.13,632.061 1424.5,635C 1424.88,635.951 1425.22,636.784 1425.5,637.5C 1425.89,640.693 1425.89,644.027 1425.5,647.5C 1425.39,648.117 1425.06,648.617 1424.5,649C 1425.12,651.607 1425.79,654.107 1426.5,656.5C 1429.67,707.958 1446.84,753.958 1478,794.5C 1501,819.416 1529.16,835.082 1562.5,841.5C 1565.67,869.532 1573.51,896.198 1586,921.5C 1594.09,933.338 1601.42,945.671 1608,958.5C 1612.15,968.064 1612.48,977.731 1609,987.5C 1606.13,990.704 1602.96,993.537 1599.5,996C 1551.33,1024.59 1503,1052.92 1454.5,1081C 1434.16,1093.84 1414.16,1107.17 1394.5,1121C 1379.52,1128.16 1364.85,1135.82 1350.5,1144C 1335.15,1154.88 1328.65,1169.71 1331,1188.5C 1332.43,1200.78 1335.09,1212.78 1339,1224.5C 1358.02,1279.22 1378.02,1333.55 1399,1387.5C 1416.39,1443.2 1427.05,1499.86 1431,1557.5C 1316.84,1441.49 1248.67,1302.16 1226.5,1139.5C 1227.36,1140.46 1228.03,1140.46 1228.5,1139.5C 1228.67,1132.76 1228.67,1126.26 1228.5,1120C 1230.02,1105.65 1231.69,1091.32 1233.5,1077C 1241.06,998.33 1259.56,919.164 1289,839.5C 1320.5,755.795 1366.66,681.462 1427.5,616.5 Z"/></g>
<g><path style="opacity:1" fill="#872d2a" d="M 1426.5,626.5 C 1426.81,630.371 1426.48,634.038 1425.5,637.5C 1425.22,636.784 1424.88,635.951 1424.5,635C 1425.13,632.061 1425.79,629.228 1426.5,626.5 Z"/></g>
<g><path style="opacity:1" fill="#87807d" d="M 1502.5,626.5 C 1501.76,630.015 1501.76,633.348 1502.5,636.5C 1502.44,637.043 1502.11,637.376 1501.5,637.5C 1500.25,633.6 1500.59,629.933 1502.5,626.5 Z"/></g>
<g><path style="opacity:0.996" fill="#938b85" d="M 2396.5,626.5 C 2395.7,635.161 2394.86,643.828 2394,652.5C 2393.77,653.737 2393.27,654.737 2392.5,655.5C 2393.53,646.863 2394.36,638.196 2395,629.5C 2395.23,628.263 2395.73,627.263 2396.5,626.5 Z"/></g>
<g><path style="opacity:0.996" fill="#8e8681" d="M 1601.5,639.5 C 1603.65,641.617 1604.65,644.284 1604.5,647.5C 1603.13,645.064 1602.13,642.397 1601.5,639.5 Z"/></g>
<g><path style="opacity:0.996" fill="#9b918a" d="M 1662.5,642.5 C 1658.41,643.895 1654.08,644.562 1649.5,644.5C 1653.59,643.105 1657.92,642.438 1662.5,642.5 Z"/></g>
<g><path style="opacity:1" fill="#872d2a" d="M 1425.5,647.5 C 1426.48,650.287 1426.81,653.287 1426.5,656.5C 1425.79,654.107 1425.12,651.607 1424.5,649C 1425.06,648.617 1425.39,648.117 1425.5,647.5 Z"/></g>
<g><path style="opacity:1" fill="#872d2a" d="M 2420.5,655.5 C 2420.81,658.385 2420.47,661.052 2419.5,663.5C 2419.06,663.565 2418.73,663.399 2418.5,663C 2419.12,660.393 2419.79,657.893 2420.5,655.5 Z"/></g>
<g><path style="opacity:0.988" fill="#4a4142" d="M 1524.5,658.5 C 1525.42,668.998 1526.09,679.665 1526.5,690.5C 1524.2,679.375 1523.53,668.708 1524.5,658.5 Z"/></g>
<g><path style="opacity:1" fill="#f7e3cc" d="M 2111.5,734.5 C 2111.41,732.214 2110.74,730.214 2109.5,728.5C 2109.43,725.572 2108.77,722.905 2107.5,720.5C 2106.76,704.844 2110.93,689.511 2120,674.5C 2124,669.579 2128.5,668.413 2133.5,671C 2145.39,676.502 2152.06,685.502 2153.5,698C 2139.55,707.896 2126.05,718.396 2113,729.5C 2112.8,731.382 2112.3,733.048 2111.5,734.5 Z"/></g>
<g><path style="opacity:1" fill="#817b79" d="M 1542.5,665.5 C 1541.35,682.502 1541.35,699.502 1542.5,716.5C 1542.17,718.833 1541.83,721.167 1541.5,723.5C 1540.48,723.145 1539.81,722.478 1539.5,721.5C 1540.59,721.38 1541.25,720.713 1541.5,719.5C 1540.87,712.361 1540.53,705.194 1540.5,698C 1540.39,686.964 1541.06,676.131 1542.5,665.5 Z"/></g>
<g><path style="opacity:1" fill="#827c79" d="M 2285.5,682.5 C 2286.89,685.215 2287.55,688.215 2287.5,691.5C 2287.68,694.205 2287.02,696.538 2285.5,698.5C 2286.74,693.174 2286.74,687.841 2285.5,682.5 Z"/></g>
<g><path style="opacity:0.996" fill="#958c86" d="M 2323.5,687.5 C 2323.59,690.152 2322.92,692.485 2321.5,694.5C 2321.41,691.848 2322.08,689.515 2323.5,687.5 Z"/></g>
<g><path style="opacity:0.996" fill="#928b85" d="M 1526.5,691.5 C 1527.66,694.273 1528.32,697.273 1528.5,700.5C 1526.88,697.829 1526.22,694.829 1526.5,691.5 Z"/></g>
<g><path style="opacity:0.996" fill="#958c86" d="M 2386.5,702.5 C 2386.07,705.01 2385.41,707.343 2384.5,709.5C 2384.34,707.473 2384.5,705.473 2385,703.5C 2385.38,702.944 2385.88,702.611 2386.5,702.5 Z"/></g>
<g><path style="opacity:1" fill="#8d8580" d="M 2109.5,728.5 C 2110.74,730.214 2111.41,732.214 2111.5,734.5C 2112.34,736.379 2112.67,738.379 2112.5,740.5C 2110.9,736.761 2109.9,732.761 2109.5,728.5 Z"/></g>
<g><path style="opacity:0.996" fill="#968d87" d="M 2127.5,760.5 C 2130.43,760.565 2133.09,761.232 2135.5,762.5C 2132.5,762.706 2129.84,762.04 2127.5,760.5 Z"/></g>
<g><path style="opacity:1" fill="#241f20" d="M 2248.5,856.5 C 2243.97,857.137 2239.63,858.137 2235.5,859.5C 2228.26,860.937 2220.92,861.604 2213.5,861.5C 2212.24,845.489 2212.24,829.489 2213.5,813.5C 2229.58,811.851 2245.24,808.351 2260.5,803C 2286.49,791.922 2311.65,779.422 2336,765.5C 2339.12,764.353 2342.12,763.02 2345,761.5C 2345.5,761.833 2346,762.167 2346.5,762.5C 2333.9,786.535 2318.23,808.368 2299.5,828C 2291.94,834.39 2283.94,840.223 2275.5,845.5C 2266.78,849.927 2257.78,853.593 2248.5,856.5 Z"/></g>
<g><path style="opacity:1" fill="#f6e2cb" d="M 1772.5,1066.5 C 1736.11,1062.71 1705.27,1047.71 1680,1021.5C 1668.99,1005.49 1658.99,988.825 1650,971.5C 1635.92,939.969 1623.75,907.803 1613.5,875C 1610.15,863.754 1607.65,852.254 1606,840.5C 1605.33,834.5 1605.33,828.5 1606,822.5C 1606.56,820.385 1607.39,818.385 1608.5,816.5C 1618,807.675 1626.34,798.009 1633.5,787.5C 1636.3,783.086 1636.97,778.42 1635.5,773.5C 1634.63,770.888 1633.96,768.221 1633.5,765.5C 1641.32,766.777 1646.82,771.443 1650,779.5C 1651.46,789.38 1652.96,799.213 1654.5,809C 1654.17,810 1653.83,811 1653.5,812C 1654.17,813.333 1654.83,814.667 1655.5,816C 1655.17,817 1654.83,818 1654.5,819C 1655.08,822.944 1656.08,826.944 1657.5,831C 1664.04,880.816 1679.54,929.982 1704,978.5C 1721.62,1011.79 1744.79,1040.62 1773.5,1065C 1772.94,1065.38 1772.61,1065.88 1772.5,1066.5 Z"/></g>
<g><path style="opacity:0.996" fill="#978e88" d="M 2204.5,779.5 C 2204.39,780.117 2204.06,780.617 2203.5,781C 2200.15,781.838 2196.82,782.671 2193.5,783.5C 2193.61,782.883 2193.94,782.383 2194.5,782C 2197.85,781.162 2201.18,780.329 2204.5,779.5 Z"/></g>
<g><path style="opacity:1" fill="#8c8581" d="M 1635.5,773.5 C 1636.97,778.42 1636.3,783.086 1633.5,787.5C 1634.81,782.934 1635.47,778.267 1635.5,773.5 Z"/></g>
<g><path style="opacity:0.996" fill="#978e87" d="M 2181.5,785.5 C 2176.39,787.044 2171.06,788.044 2165.5,788.5C 2165.5,788.167 2165.5,787.833 2165.5,787.5C 2170.79,786.554 2176.13,785.887 2181.5,785.5 Z"/></g>
<g><path style="opacity:0.988" fill="#4c4546" d="M 2165.5,787.5 C 2165.5,787.833 2165.5,788.167 2165.5,788.5C 2156.51,789.107 2147.51,789.44 2138.5,789.5C 2147.31,788.228 2156.31,787.561 2165.5,787.5 Z"/></g>
<g><path style="opacity:1" fill="#231f20" d="M 2022.5,801.5 C 2024.84,803.04 2027.5,803.706 2030.5,803.5C 2035.69,805.039 2041.02,806.372 2046.5,807.5C 2050.27,808.795 2054.27,809.461 2058.5,809.5C 2065.35,810.574 2072.35,811.574 2079.5,812.5C 2085.95,813.936 2092.61,814.603 2099.5,814.5C 2102.43,815.299 2105.43,815.632 2108.5,815.5C 2122.14,817.487 2135.8,817.82 2149.5,816.5C 2164.21,815.85 2178.54,816.517 2192.5,818.5C 2192.86,821.689 2193.53,824.689 2194.5,827.5C 2195.27,832.797 2195.61,838.13 2195.5,843.5C 2195.67,850.175 2195.5,856.842 2195,863.5C 2192.06,864.128 2189.23,864.795 2186.5,865.5C 2175.15,865.332 2164.15,864.999 2153.5,864.5C 2148.01,863.565 2142.34,862.898 2136.5,862.5C 2127.75,862.099 2119.08,861.099 2110.5,859.5C 2107.69,858.525 2104.69,857.858 2101.5,857.5C 2068.66,852.733 2039.66,839.899 2014.5,819C 2007.46,810.809 2001.46,801.976 1996.5,792.5C 1996.83,792.167 1997.17,791.833 1997.5,791.5C 2005.56,795.54 2013.89,798.874 2022.5,801.5 Z"/></g>
<g><path style="opacity:0.996" fill="#928a84" d="M 2022.5,801.5 C 2025.43,801.565 2028.09,802.232 2030.5,803.5C 2027.5,803.706 2024.84,803.04 2022.5,801.5 Z"/></g>
<g><path style="opacity:1" fill="#f7e4cc" d="M 1933.5,805.5 C 1947.01,803.946 1960.01,806.446 1972.5,813C 1960.72,816.855 1952.39,824.522 1947.5,836C 1947.83,836.333 1948.17,836.667 1948.5,837C 1945.54,842.616 1943.54,848.282 1942.5,854C 1942.96,854.414 1943.29,854.914 1943.5,855.5C 1942.71,861.449 1942.21,867.449 1942,873.5C 1938.28,872.713 1934.62,871.713 1931,870.5C 1930.67,870.833 1930.33,871.167 1930,871.5C 1928.35,870.109 1927.85,868.609 1928.5,867C 1925.83,860.006 1924.17,853.006 1923.5,846C 1921.96,840.382 1920.63,834.716 1919.5,829C 1920.82,824.999 1920.82,820.666 1919.5,816C 1921.49,810.814 1924.99,807.981 1930,807.5C 1931.3,806.915 1932.47,806.249 1933.5,805.5 Z"/></g>
<g><path style="opacity:0.996" fill="#948c86" d="M 2046.5,807.5 C 2050.76,807.344 2054.76,808.011 2058.5,809.5C 2054.27,809.461 2050.27,808.795 2046.5,807.5 Z"/></g>
<g><path style="opacity:0.996" fill="#958c86" d="M 2079.5,812.5 C 2086.37,812.521 2093.04,813.187 2099.5,814.5C 2092.61,814.603 2085.95,813.936 2079.5,812.5 Z"/></g>
<g><path style="opacity:0.988" fill="#484041" d="M 2108.5,815.5 C 2121.89,815.906 2135.55,816.239 2149.5,816.5C 2135.8,817.82 2122.14,817.487 2108.5,815.5 Z"/></g>
<g><path style="opacity:1" fill="#7e7876" d="M 2192.5,818.5 C 2194.27,821.123 2194.93,824.123 2194.5,827.5C 2193.53,824.689 2192.86,821.689 2192.5,818.5 Z"/></g>
<g><path style="opacity:0.988" fill="#544d4e" d="M 1987.5,837.5 C 1982.86,838.127 1978.19,838.46 1973.5,838.5C 1978.1,836.672 1982.77,836.339 1987.5,837.5 Z"/></g>
<g><path style="opacity:1" fill="#231f20" d="M 1987.5,837.5 C 1998.59,862.759 2016.93,880.926 2042.5,892C 2051.84,895.902 2061.5,898.736 2071.5,900.5C 2073.91,901.768 2076.57,902.435 2079.5,902.5C 2093.06,904.965 2106.73,906.465 2120.5,907C 2155.18,907.603 2189.85,907.603 2224.5,907C 2218.37,921.792 2207.71,931.792 2192.5,937C 2181.83,939.367 2171.17,941.533 2160.5,943.5C 2155.31,943.741 2150.31,944.407 2145.5,945.5C 2143.5,945.5 2141.5,945.5 2139.5,945.5C 2127.32,945.172 2115.32,945.505 2103.5,946.5C 2103.17,946.5 2102.83,946.5 2102.5,946.5C 2097.33,945.619 2092,944.952 2086.5,944.5C 2068.32,943.295 2051.66,937.795 2036.5,928C 2030,922.504 2023.84,916.671 2018,910.5C 2007.55,896.829 1997.55,882.829 1988,868.5C 1985,866.667 1982.5,864.334 1980.5,861.5C 1978.17,858.5 1975.5,855.833 1972.5,853.5C 1968.81,850.314 1967.31,846.314 1968,841.5C 1969.49,839.84 1971.32,838.84 1973.5,838.5C 1978.19,838.46 1982.86,838.127 1987.5,837.5 Z"/></g>
<g><path style="opacity:0.996" fill="#aea196" d="M 2195.5,843.5 C 2196.65,850.321 2196.82,857.321 2196,864.5C 2192.94,865.451 2189.78,865.784 2186.5,865.5C 2189.23,864.795 2192.06,864.128 2195,863.5C 2195.5,856.842 2195.67,850.175 2195.5,843.5 Z"/></g>
<g><path style="opacity:0.996" fill="#8e8681" d="M 1972.5,853.5 C 1975.5,855.833 1978.17,858.5 1980.5,861.5C 1976.83,859.833 1974.17,857.167 1972.5,853.5 Z"/></g>
<g><path style="opacity:0.996" fill="#948c86" d="M 2248.5,856.5 C 2244.55,858.626 2240.22,859.626 2235.5,859.5C 2239.63,858.137 2243.97,857.137 2248.5,856.5 Z"/></g>
<g><path style="opacity:1" fill="#7f7977" d="M 2101.5,857.5 C 2104.69,857.858 2107.69,858.525 2110.5,859.5C 2107.81,859.664 2105.15,859.497 2102.5,859C 2101.94,858.617 2101.61,858.117 2101.5,857.5 Z"/></g>
<g><path style="opacity:1" fill="#7f7977" d="M 2136.5,862.5 C 2142.34,862.898 2148.01,863.565 2153.5,864.5C 2148.49,864.666 2143.49,864.499 2138.5,864C 2137.58,863.722 2136.92,863.222 2136.5,862.5 Z"/></g>
<g><path style="opacity:0.996" fill="#908883" d="M 1773.5,875.5 C 1774.41,877.657 1775.07,879.99 1775.5,882.5C 1774.88,882.389 1774.38,882.056 1774,881.5C 1773.5,879.527 1773.34,877.527 1773.5,875.5 Z"/></g>
<g><path style="opacity:0.996" fill="#978e87" d="M 2071.5,900.5 C 2074.5,900.294 2077.16,900.96 2079.5,902.5C 2076.57,902.435 2073.91,901.768 2071.5,900.5 Z"/></g>
<g><path style="opacity:0.996" fill="#9c928b" d="M 2160.5,943.5 C 2155.77,945.145 2150.77,945.811 2145.5,945.5C 2150.31,944.407 2155.31,943.741 2160.5,943.5 Z"/></g>
<g><path style="opacity:1" fill="#7e7876" d="M 2086.5,944.5 C 2092,944.952 2097.33,945.619 2102.5,946.5C 2097.82,946.666 2093.15,946.499 2088.5,946C 2087.58,945.722 2086.92,945.222 2086.5,944.5 Z"/></g>
<g><path style="opacity:0.988" fill="#484142" d="M 2103.5,946.5 C 2115.32,945.505 2127.32,945.172 2139.5,945.5C 2127.54,946.922 2115.54,947.255 2103.5,946.5 Z"/></g>
<g><path style="opacity:1" fill="#b73430" d="M 1224.5,968.5 C 1224.04,986.384 1222.71,1004.05 1220.5,1021.5C 1221.05,1003.62 1222.38,985.958 1224.5,968.5 Z"/></g>
<g><path style="opacity:1" fill="#48718a" d="M 2431.5,1157.5 C 2389.23,1125.36 2346.56,1093.69 2303.5,1062.5C 2298.07,1053.9 2291.07,1046.74 2282.5,1041C 2278.55,1039.52 2274.55,1038.35 2270.5,1037.5C 2266.88,1035.21 2263.54,1032.55 2260.5,1029.5C 2268.98,1022.53 2277.65,1015.7 2286.5,1009C 2290.87,1004.97 2294.87,1000.63 2298.5,996C 2299.91,995.685 2301.24,996.018 2302.5,997C 2328.11,1020.27 2353.11,1044.27 2377.5,1069C 2394.55,1081.71 2410.72,1095.54 2426,1110.5C 2436.13,1125.35 2437.97,1141.02 2431.5,1157.5 Z"/></g>
<g><path style="opacity:1" fill="#872d2a" d="M 2616.5,1002.5 C 2617.48,1005.62 2617.81,1008.96 2617.5,1012.5C 2616.8,1009.44 2616.13,1006.27 2615.5,1003C 2615.73,1002.6 2616.06,1002.43 2616.5,1002.5 Z"/></g>
<g><path style="opacity:1" fill="#335061" d="M 2260.5,1029.5 C 2263.54,1032.55 2266.88,1035.21 2270.5,1037.5C 2266.79,1037.66 2263.29,1037.66 2260,1037.5C 2256.84,1038.38 2253.5,1039.72 2250,1041.5C 2249.33,1040.83 2249.33,1040.17 2250,1039.5C 2253.4,1035.93 2256.9,1032.6 2260.5,1029.5 Z"/></g>
<g><path style="opacity:1" fill="#48718a" d="M 1682.5,1091.5 C 1604.84,1126.49 1526.84,1161.32 1448.5,1196C 1447.27,1196.78 1446.27,1197.78 1445.5,1199C 1475.41,1320.24 1496.74,1440.24 1509.5,1559C 1509.98,1565.15 1509.98,1570.81 1509.5,1576C 1510.01,1583.3 1511.01,1590.96 1512.5,1599C 1512.53,1601.55 1512.2,1604.21 1511.5,1607C 1512.17,1611.67 1512.83,1616.33 1513.5,1621C 1512.6,1634.78 1512.6,1648.45 1513.5,1662C 1512.31,1672.44 1511.31,1682.44 1510.5,1692C 1510.62,1693.27 1510.95,1694.6 1511.5,1696C 1508.65,1709.26 1506.32,1722.1 1504.5,1734.5C 1496.98,1731.49 1489.64,1727.99 1482.5,1724C 1480.86,1610.35 1466.7,1495.52 1440,1379.5C 1424.54,1314.95 1403.04,1252.62 1375.5,1192.5C 1434.78,1144.42 1497.78,1101.59 1564.5,1064C 1585.08,1053.55 1606.08,1043.88 1627.5,1035C 1630.21,1034.26 1632.55,1034.93 1634.5,1037C 1639.67,1042.17 1644.83,1047.33 1650,1052.5C 1661.07,1065.39 1671.9,1078.39 1682.5,1091.5 Z"/></g>
<g><path style="opacity:0.988" fill="#554e4f" d="M 1891.5,1052.5 C 1887.43,1054.05 1883.1,1054.72 1878.5,1054.5C 1882.62,1053.29 1886.95,1052.62 1891.5,1052.5 Z"/></g>
<g><path style="opacity:0.996" fill="#938a85" d="M 1913.5,1053.5 C 1918.45,1053.12 1923.12,1053.79 1927.5,1055.5C 1922.65,1055.19 1917.98,1054.52 1913.5,1053.5 Z"/></g>
<g><path style="opacity:0.996" fill="#968d87" d="M 2017.5,1058.5 C 2023.05,1058.53 2028.38,1059.19 2033.5,1060.5C 2027.92,1060.75 2022.58,1060.08 2017.5,1058.5 Z"/></g>
<g><path style="opacity:1" fill="#335061" d="M 2303.5,1062.5 C 2346.56,1093.69 2389.23,1125.36 2431.5,1157.5C 2424.27,1201.22 2413.61,1243.72 2399.5,1285C 2389.81,1317.65 2378.64,1350.15 2366,1382.5C 2357.14,1404.09 2348.47,1425.75 2340,1447.5C 2336.27,1455.29 2332.27,1462.96 2328,1470.5C 2325.13,1473.7 2321.96,1476.54 2318.5,1479C 2307.26,1482.66 2296.09,1485.16 2285,1486.5C 2284,1486.17 2283,1485.83 2282,1485.5C 2270.33,1486.17 2258.67,1486.83 2247,1487.5C 2246,1487.17 2245,1486.83 2244,1486.5C 2229.55,1487.39 2215.72,1490.55 2202.5,1496C 2235.94,1440.28 2269.78,1384.78 2304,1329.5C 2314.42,1311.66 2324.59,1293.66 2334.5,1275.5C 2332.85,1271.54 2330.69,1267.87 2328,1264.5C 2322.97,1259.8 2318.3,1254.8 2314,1249.5C 2311.35,1245.87 2309.52,1241.87 2308.5,1237.5C 2311.31,1230.05 2313.98,1222.55 2316.5,1215C 2315.54,1213.85 2315.88,1212.85 2317.5,1212C 2317.17,1211.67 2316.83,1211.33 2316.5,1211C 2317.94,1205.69 2319.27,1200.36 2320.5,1195C 2320.81,1191.07 2320.81,1187.4 2320.5,1184C 2324.56,1152.85 2322.39,1121.35 2314,1089.5C 2311.04,1080.26 2307.54,1071.26 2303.5,1062.5 Z"/></g>
<g><path style="opacity:0.996" fill="#9c928b" d="M 1785.5,1068.5 C 1790.45,1068.77 1795.12,1069.77 1799.5,1071.5C 1794.55,1071.23 1789.88,1070.23 1785.5,1068.5 Z"/></g>
<g><path style="opacity:0.988" fill="#564f50" d="M 1815.5,1072.5 C 1821.67,1072.92 1827.67,1073.59 1833.5,1074.5C 1828.49,1074.67 1823.49,1074.5 1818.5,1074C 1817.26,1073.77 1816.26,1073.27 1815.5,1072.5 Z"/></g>
<g><path style="opacity:1" fill="#ad322f" d="M 1220.5,1067.5 C 1222.16,1077.28 1222.83,1087.28 1222.5,1097.5C 1221.25,1087.41 1220.58,1077.41 1220.5,1067.5 Z"/></g>
<g><path style="opacity:1" fill="#b3332f" d="M 2253.5,1076.5 C 2249.14,1078.34 2244.47,1079.34 2239.5,1079.5C 2243.89,1077.75 2248.56,1076.75 2253.5,1076.5 Z"/></g>
<g><path style="opacity:1" fill="#ec3c39" d="M 2253.5,1076.5 C 2254.5,1076.5 2255.5,1076.5 2256.5,1076.5C 2260.16,1078.34 2264.16,1079.34 2268.5,1079.5C 2272.7,1080.86 2275.87,1083.53 2278,1087.5C 2281.63,1093.42 2284.13,1099.75 2285.5,1106.5C 2285.66,1107.87 2285.49,1109.21 2285,1110.5C 2282.87,1110.21 2280.54,1109.54 2278,1108.5C 2274.45,1108.94 2270.78,1108.94 2267,1108.5C 2264.67,1109.17 2262.33,1109.83 2260,1110.5C 2257.34,1109.65 2254.34,1109.99 2251,1111.5C 2239.92,1111.57 2229.42,1114.4 2219.5,1120C 2214.8,1124.02 2211.8,1129.02 2210.5,1135C 2210.5,1144.78 2211.16,1154.11 2212.5,1163C 2210.3,1173.87 2203.8,1180.37 2193,1182.5C 2169.12,1181.67 2162.28,1191.84 2172.5,1213C 2172.33,1213.5 2172.17,1214 2172,1214.5C 2170.3,1213.59 2168.47,1213.26 2166.5,1213.5C 2163.53,1213.56 2160.86,1212.73 2158.5,1211C 2159.32,1198.58 2159.82,1186.08 2160,1173.5C 2161.18,1169.98 2163.68,1167.98 2167.5,1167.5C 2173.48,1166.91 2179.15,1165.58 2184.5,1163.5C 2189.11,1163.34 2193.61,1162.67 2198,1161.5C 2199,1161.83 2200,1162.17 2201,1162.5C 2201.46,1161.26 2200.96,1160.42 2199.5,1160C 2185.84,1155.57 2172.84,1154.07 2160.5,1155.5C 2159.17,1155.5 2157.83,1155.5 2156.5,1155.5C 2156.74,1154.21 2156.4,1153.21 2155.5,1152.5C 2154.19,1146.21 2152.02,1140.21 2149,1134.5C 2148.22,1133.06 2148.39,1131.72 2149.5,1130.5C 2153.17,1128.67 2156.83,1126.83 2160.5,1125C 2178.56,1112.61 2196.9,1100.61 2215.5,1089C 2223.2,1084.98 2231.2,1081.82 2239.5,1079.5C 2244.47,1079.34 2249.14,1078.34 2253.5,1076.5 Z"/></g>
<g><path style="opacity:1" fill="#ae332f" d="M 2256.5,1076.5 C 2260.84,1076.58 2264.84,1077.58 2268.5,1079.5C 2264.16,1079.34 2260.16,1078.34 2256.5,1076.5 Z"/></g>
<g><path style="opacity:1" fill="#872d2a" d="M 2617.5,1078.5 C 2617.81,1081.71 2617.48,1084.71 2616.5,1087.5C 2616.06,1087.57 2615.73,1087.4 2615.5,1087C 2616.13,1084.06 2616.79,1081.23 2617.5,1078.5 Z"/></g>
<g><path style="opacity:1" fill="#fcfcfc" d="M 1766.5,1090.5 C 1770.62,1091.71 1774.95,1092.38 1779.5,1092.5C 1788.84,1093.12 1798.17,1093.78 1807.5,1094.5C 1812.33,1095.4 1817.33,1096.07 1822.5,1096.5C 1827.19,1096.54 1831.86,1096.87 1836.5,1097.5C 1836.67,1100.85 1836.5,1104.18 1836,1107.5C 1834.73,1112.16 1833.56,1116.82 1832.5,1121.5C 1830.95,1122.23 1830.12,1123.56 1830,1125.5C 1808.64,1122.79 1788.31,1117.79 1769,1110.5C 1767.98,1111.63 1767.32,1111.3 1767,1109.5C 1766.67,1109.83 1766.33,1110.17 1766,1110.5C 1756.82,1106.33 1747.32,1102.99 1737.5,1100.5C 1730.9,1096.39 1728.73,1090.72 1731,1083.5C 1731.75,1082.01 1732.91,1081.01 1734.5,1080.5C 1744.41,1085.98 1755.07,1089.31 1766.5,1090.5 Z"/></g>
<g><path style="opacity:1" fill="#ebd2b5" d="M 2092.5,1095.5 C 2097.22,1095.63 2101.55,1094.63 2105.5,1092.5C 2117.65,1090.1 2129.65,1087.27 2141.5,1084C 2151.71,1082.35 2161.71,1080.85 2171.5,1079.5C 2153.51,1092.84 2135.84,1106.67 2118.5,1121C 2083.43,1125.34 2052.09,1116.84 2024.5,1095.5C 2023.48,1095 2023.31,1094.33 2024,1093.5C 2025.09,1092.71 2026.25,1092.04 2027.5,1091.5C 2048.76,1099.19 2070.42,1100.52 2092.5,1095.5 Z"/></g>
<g><path style="opacity:1" fill="#9c302d" d="M 1902.5,1090.5 C 1895.82,1089.33 1889.16,1089.33 1882.5,1090.5C 1889.16,1087.89 1895.82,1087.89 1902.5,1090.5 Z"/></g>
<g><path style="opacity:1" fill="#ec3c39" d="M 1902.5,1090.5 C 1937.52,1097.67 1970.86,1109.51 2002.5,1126C 2014.84,1133.84 2027.51,1141.17 2040.5,1148C 2047.04,1150.13 2053.7,1151.63 2060.5,1152.5C 2060.76,1156.35 2060.76,1160.35 2060.5,1164.5C 2054.2,1167.88 2047.53,1170.38 2040.5,1172C 2030.03,1174.03 2019.7,1176.53 2009.5,1179.5C 2008.6,1180.21 2008.26,1181.21 2008.5,1182.5C 2012.83,1182.5 2017.17,1182.5 2021.5,1182.5C 2036.69,1183.55 2051.02,1187.89 2064.5,1195.5C 2064.67,1196.82 2064.34,1197.99 2063.5,1199C 2044.76,1204.28 2026.42,1200.28 2008.5,1187C 2005.79,1184.63 2003.46,1181.96 2001.5,1179C 2003.58,1174.18 2005.91,1169.51 2008.5,1165C 2008.5,1162 2008.5,1159 2008.5,1156C 2007.74,1153.72 2006.57,1151.22 2005,1148.5C 2002.59,1146.04 1999.76,1144.21 1996.5,1143C 1981.55,1138.21 1966.72,1134.38 1952,1131.5C 1950.73,1131.62 1949.4,1131.95 1948,1132.5C 1932.65,1131.35 1918.31,1130.68 1905,1130.5C 1900.71,1131.23 1896.21,1132.4 1891.5,1134C 1885.34,1136.99 1881.51,1141.49 1880,1147.5C 1879.26,1151.73 1878.42,1155.89 1877.5,1160C 1877.94,1167.18 1878.6,1175.51 1879.5,1185C 1879.17,1186 1878.83,1187 1878.5,1188C 1879.83,1198.33 1881.17,1208.67 1882.5,1219C 1882.38,1220.27 1882.05,1221.6 1881.5,1223C 1882.17,1225.67 1882.83,1228.33 1883.5,1231C 1883.17,1231.33 1882.83,1231.67 1882.5,1232C 1883.5,1239.67 1884.5,1247.33 1885.5,1255C 1885.17,1256 1884.83,1257 1884.5,1258C 1886.12,1262.97 1886.45,1267.3 1885.5,1271C 1886.17,1273.33 1886.83,1275.67 1887.5,1278C 1886.99,1280.37 1886.82,1283.2 1887,1286.5C 1886.62,1285.94 1886.12,1285.61 1885.5,1285.5C 1878.32,1268.12 1871.82,1250.45 1866,1232.5C 1863.37,1223.64 1861.54,1214.64 1860.5,1205.5C 1860.67,1199.16 1860.5,1192.82 1860,1186.5C 1859.8,1184.62 1859.3,1182.95 1858.5,1181.5C 1857.95,1168.11 1857.95,1155.11 1858.5,1142.5C 1859.27,1141.74 1859.77,1140.74 1860,1139.5C 1860.5,1135.85 1860.67,1132.18 1860.5,1128.5C 1860.92,1114.39 1866.25,1102.55 1876.5,1093C 1878.41,1091.88 1880.41,1091.04 1882.5,1090.5C 1889.16,1089.33 1895.82,1089.33 1902.5,1090.5 Z"/></g>
<g><path style="opacity:0.988" fill="#595354" d="M 1766.5,1090.5 C 1770.18,1090.33 1773.85,1090.5 1777.5,1091C 1778.42,1091.28 1779.08,1091.78 1779.5,1092.5C 1774.95,1092.38 1770.62,1091.71 1766.5,1090.5 Z"/></g>
<g><path style="opacity:1" fill="#335061" d="M 1682.5,1091.5 C 1685.94,1095.44 1689.6,1099.27 1693.5,1103C 1720.72,1121.12 1749.06,1137.45 1778.5,1152C 1796.62,1160.23 1814.62,1168.73 1832.5,1177.5C 1840.55,1218.27 1851.38,1258.93 1865,1299.5C 1869.31,1314.29 1876.81,1327.12 1887.5,1338C 1895.5,1344.08 1904.5,1346.08 1914.5,1344C 1921.03,1342.15 1927.37,1340.15 1933.5,1338C 1927.65,1350.87 1920.15,1362.7 1911,1373.5C 1906.69,1381.26 1904.52,1389.09 1904.5,1397C 1906.34,1404.99 1910.67,1411.33 1917.5,1416C 1922.83,1419.33 1928.17,1422.67 1933.5,1426C 1959.22,1437.91 1984.55,1450.57 2009.5,1464C 2031.69,1473.81 2053.69,1483.14 2075.5,1492C 2069.09,1493.15 2062.59,1493.98 2056,1494.5C 2048.82,1493.56 2040.49,1493.9 2031,1495.5C 2028.67,1495.17 2026.33,1494.83 2024,1494.5C 2006.6,1495.74 1988.94,1497.07 1971,1498.5C 1970,1498.17 1969,1497.83 1968,1497.5C 1958.78,1498.09 1949.78,1499.09 1941,1500.5C 1940,1500.17 1939,1499.83 1938,1499.5C 1935,1500.17 1932,1500.83 1929,1501.5C 1928.67,1501.17 1928.33,1500.83 1928,1500.5C 1873.72,1504.94 1819.89,1510.6 1766.5,1517.5C 1766.35,1467.8 1766.68,1417.96 1767.5,1368C 1766.74,1365.93 1766.24,1363.76 1766,1361.5C 1756,1349.5 1746,1337.5 1736,1325.5C 1735.54,1326.09 1735.37,1326.76 1735.5,1327.5C 1734.71,1319.55 1730.38,1316.38 1722.5,1318C 1719.57,1320.26 1717.4,1323.1 1716,1326.5C 1713.54,1333.84 1711.71,1341.01 1710.5,1348C 1710.59,1356.61 1710.59,1364.94 1710.5,1373C 1712.57,1391.33 1714.57,1409.66 1716.5,1428C 1716.17,1428.33 1715.83,1428.67 1715.5,1429C 1716.17,1433.33 1716.83,1437.67 1717.5,1442C 1717.5,1451.33 1717.5,1460.67 1717.5,1470C 1716.39,1483.21 1713.55,1496.38 1709,1509.5C 1708.59,1509.96 1708.09,1510.29 1707.5,1510.5C 1693.24,1504.7 1680.24,1496.87 1668.5,1487C 1664.22,1483.85 1659.55,1481.85 1654.5,1481C 1652.06,1486.4 1651.89,1491.9 1654,1497.5C 1658.28,1504.11 1662.95,1510.45 1668,1516.5C 1670.37,1524.92 1667.54,1530.76 1659.5,1534C 1652.54,1535.82 1645.54,1537.49 1638.5,1539C 1629.59,1542.36 1624.92,1548.52 1624.5,1557.5C 1623.88,1557.39 1623.38,1557.06 1623,1556.5C 1618.25,1557.31 1613.42,1557.81 1608.5,1558C 1620.6,1567.13 1633.1,1575.63 1646,1583.5C 1648.67,1583.5 1651.33,1583.5 1654,1583.5C 1660.59,1585.02 1666.92,1586.35 1673,1587.5C 1674.63,1586.9 1676.29,1587.24 1678,1588.5C 1678.33,1588.17 1678.67,1587.83 1679,1587.5C 1687.51,1589.53 1695.84,1591.2 1704,1592.5C 1704.33,1592.17 1704.67,1591.83 1705,1591.5C 1709.02,1592.39 1713.02,1593.39 1717,1594.5C 1718.63,1593.9 1720.29,1594.24 1722,1595.5C 1722.28,1594.58 1722.78,1593.92 1723.5,1593.5C 1729.75,1658.81 1738.08,1724.31 1748.5,1790C 1748.17,1790.33 1747.83,1790.67 1747.5,1791C 1749.9,1802.64 1751.57,1814.14 1752.5,1825.5C 1701.11,1822.15 1651.45,1808.98 1603.5,1786C 1570.19,1769.34 1537.19,1752.18 1504.5,1734.5C 1506.32,1722.1 1508.65,1709.26 1511.5,1696C 1510.95,1694.6 1510.62,1693.27 1510.5,1692C 1511.31,1682.44 1512.31,1672.44 1513.5,1662C 1512.6,1648.45 1512.6,1634.78 1513.5,1621C 1512.83,1616.33 1512.17,1611.67 1511.5,1607C 1512.2,1604.21 1512.53,1601.55 1512.5,1599C 1511.01,1590.96 1510.01,1583.3 1509.5,1576C 1509.98,1570.81 1509.98,1565.15 1509.5,1559C 1496.74,1440.24 1475.41,1320.24 1445.5,1199C 1446.27,1197.78 1447.27,1196.78 1448.5,1196C 1526.84,1161.32 1604.84,1126.49 1682.5,1091.5 Z"/></g>
<g><path style="opacity:0.996" fill="#98877f" d="M 2105.5,1092.5 C 2101.55,1094.63 2097.22,1095.63 2092.5,1095.5C 2096.63,1094.14 2100.97,1093.14 2105.5,1092.5 Z"/></g>
<g><path style="opacity:1" fill="#86807e" d="M 1807.5,1094.5 C 1811.51,1094.33 1815.51,1094.5 1819.5,1095C 1820.74,1095.23 1821.74,1095.73 1822.5,1096.5C 1817.33,1096.07 1812.33,1095.4 1807.5,1094.5 Z"/></g>
<g><path style="opacity:1" fill="#d9d6d4" d="M 1737.5,1100.5 C 1747.32,1102.99 1756.82,1106.33 1766,1110.5C 1766.33,1110.17 1766.67,1109.83 1767,1109.5C 1767.32,1111.3 1767.98,1111.63 1769,1110.5C 1788.31,1117.79 1808.64,1122.79 1830,1125.5C 1830.12,1123.56 1830.95,1122.23 1832.5,1121.5C 1831.7,1123.04 1831.37,1124.71 1831.5,1126.5C 1830.88,1126.61 1830.38,1126.94 1830,1127.5C 1829.79,1130.76 1829.29,1133.92 1828.5,1137C 1821.8,1136.72 1815.13,1135.88 1808.5,1134.5C 1784.07,1128.53 1761.4,1118.7 1740.5,1105C 1739.61,1103.39 1738.61,1101.89 1737.5,1100.5 Z"/></g>
<g><path style="opacity:1" fill="#aa322e" d="M 1222.5,1105.5 C 1223.27,1106.26 1223.77,1107.26 1224,1108.5C 1224.5,1112.82 1224.67,1117.15 1224.5,1121.5C 1223.54,1116.34 1222.87,1111.01 1222.5,1105.5 Z"/></g>
<g><path style="opacity:1" fill="#d13732" d="M 2285.5,1106.5 C 2288.2,1115.14 2290.54,1123.97 2292.5,1133C 2292.17,1133.33 2291.83,1133.67 2291.5,1134C 2297.04,1158.07 2297.87,1182.23 2294,1206.5C 2292.64,1214.43 2289.8,1221.76 2285.5,1228.5C 2276.68,1228.97 2267.51,1228.97 2258,1228.5C 2227.24,1226.29 2196.74,1221.29 2166.5,1213.5C 2168.47,1213.26 2170.3,1213.59 2172,1214.5C 2172.17,1214 2172.33,1213.5 2172.5,1213C 2162.28,1191.84 2169.12,1181.67 2193,1182.5C 2203.8,1180.37 2210.3,1173.87 2212.5,1163C 2211.16,1154.11 2210.5,1144.78 2210.5,1135C 2211.8,1129.02 2214.8,1124.02 2219.5,1120C 2229.42,1114.4 2239.92,1111.57 2251,1111.5C 2254.34,1109.99 2257.34,1109.65 2260,1110.5C 2262.33,1109.83 2264.67,1109.17 2267,1108.5C 2270.78,1108.94 2274.45,1108.94 2278,1108.5C 2280.54,1109.54 2282.87,1110.21 2285,1110.5C 2285.49,1109.21 2285.66,1107.87 2285.5,1106.5 Z"/></g>
<g><path style="opacity:1" fill="#d23732" d="M 2064.5,1195.5 C 2065.29,1195.78 2065.96,1196.28 2066.5,1197C 2065.83,1203 2065.17,1209 2064.5,1215C 2065.42,1217.48 2065.08,1220.31 2063.5,1223.5C 2046.06,1236.77 2029.06,1250.6 2012.5,1265C 1980.18,1289.07 1944.01,1304.57 1904,1311.5C 1899.67,1311.28 1896.01,1309.61 1893,1306.5C 1889.74,1299.8 1887.24,1292.8 1885.5,1285.5C 1886.12,1285.61 1886.62,1285.94 1887,1286.5C 1886.82,1283.2 1886.99,1280.37 1887.5,1278C 1886.83,1275.67 1886.17,1273.33 1885.5,1271C 1886.45,1267.3 1886.12,1262.97 1884.5,1258C 1884.83,1257 1885.17,1256 1885.5,1255C 1884.5,1247.33 1883.5,1239.67 1882.5,1232C 1882.83,1231.67 1883.17,1231.33 1883.5,1231C 1882.83,1228.33 1882.17,1225.67 1881.5,1223C 1882.05,1221.6 1882.38,1220.27 1882.5,1219C 1881.17,1208.67 1879.83,1198.33 1878.5,1188C 1878.83,1187 1879.17,1186 1879.5,1185C 1878.6,1175.51 1877.94,1167.18 1877.5,1160C 1878.42,1155.89 1879.26,1151.73 1880,1147.5C 1881.51,1141.49 1885.34,1136.99 1891.5,1134C 1896.21,1132.4 1900.71,1131.23 1905,1130.5C 1918.31,1130.68 1932.65,1131.35 1948,1132.5C 1949.4,1131.95 1950.73,1131.62 1952,1131.5C 1966.72,1134.38 1981.55,1138.21 1996.5,1143C 1999.76,1144.21 2002.59,1146.04 2005,1148.5C 2006.57,1151.22 2007.74,1153.72 2008.5,1156C 2008.5,1159 2008.5,1162 2008.5,1165C 2005.91,1169.51 2003.58,1174.18 2001.5,1179C 2003.46,1181.96 2005.79,1184.63 2008.5,1187C 2026.42,1200.28 2044.76,1204.28 2063.5,1199C 2064.34,1197.99 2064.67,1196.82 2064.5,1195.5 Z"/></g>
<g><path style="opacity:1" fill="#b0332f" d="M 1860.5,1128.5 C 1860.67,1132.18 1860.5,1135.85 1860,1139.5C 1859.77,1140.74 1859.27,1141.74 1858.5,1142.5C 1858.69,1137.63 1859.36,1132.96 1860.5,1128.5 Z"/></g>
<g><path style="opacity:0.996" fill="#898380" d="M 1831.5,1126.5 C 1830.64,1130.43 1830.31,1134.43 1830.5,1138.5C 1822.79,1138.56 1815.46,1137.22 1808.5,1134.5C 1815.13,1135.88 1821.8,1136.72 1828.5,1137C 1829.29,1133.92 1829.79,1130.76 1830,1127.5C 1830.38,1126.94 1830.88,1126.61 1831.5,1126.5 Z"/></g>
<g><path style="opacity:1" fill="#cf3732" d="M 2083.5,1180.5 C 2085.22,1183.86 2086.39,1187.53 2087,1191.5C 2087.33,1190.5 2087.67,1189.5 2088,1188.5C 2102.47,1178.05 2109.64,1163.89 2109.5,1146C 2104.82,1145.54 2100.15,1145.71 2095.5,1146.5C 2114.69,1141.14 2127.19,1148.14 2133,1167.5C 2134.4,1176.59 2133.07,1185.26 2129,1193.5C 2122.81,1202.18 2114.31,1206.51 2103.5,1206.5C 2098.48,1205.94 2093.48,1205.27 2088.5,1204.5C 2086.83,1196.5 2085.17,1188.5 2083.5,1180.5 Z"/></g>
<g><path style="opacity:1" fill="#eb3c39" d="M 2083.5,1180.5 C 2081.26,1172.02 2080.26,1163.86 2080.5,1156C 2084.16,1150.83 2089.16,1147.66 2095.5,1146.5C 2100.15,1145.71 2104.82,1145.54 2109.5,1146C 2109.64,1163.89 2102.47,1178.05 2088,1188.5C 2087.67,1189.5 2087.33,1190.5 2087,1191.5C 2086.39,1187.53 2085.22,1183.86 2083.5,1180.5 Z"/></g>
<g><path style="opacity:1" fill="#872d2a" d="M 2155.5,1152.5 C 2156.4,1153.21 2156.74,1154.21 2156.5,1155.5C 2157.83,1155.5 2159.17,1155.5 2160.5,1155.5C 2159.08,1156.45 2157.41,1156.78 2155.5,1156.5C 2155.5,1155.17 2155.5,1153.83 2155.5,1152.5 Z"/></g>
<g><path style="opacity:1" fill="#b3332f" d="M 2060.5,1152.5 C 2061.76,1153.51 2062.43,1155.01 2062.5,1157C 2062.59,1159.82 2061.93,1162.32 2060.5,1164.5C 2060.76,1160.35 2060.76,1156.35 2060.5,1152.5 Z"/></g>
<g><path style="opacity:1" fill="#b3332f" d="M 2184.5,1163.5 C 2179.15,1165.58 2173.48,1166.91 2167.5,1167.5C 2172.83,1165.22 2178.49,1163.88 2184.5,1163.5 Z"/></g>
<g><path style="opacity:1" fill="#ad332f" d="M 2009.5,1179.5 C 2010.53,1180.25 2011.7,1180.92 2013,1181.5C 2013.33,1181.17 2013.67,1180.83 2014,1180.5C 2016.61,1181.12 2019.11,1181.79 2021.5,1182.5C 2017.17,1182.5 2012.83,1182.5 2008.5,1182.5C 2008.26,1181.21 2008.6,1180.21 2009.5,1179.5 Z"/></g>
<g><path style="opacity:1" fill="#ae332f" d="M 1858.5,1181.5 C 1859.3,1182.95 1859.8,1184.62 1860,1186.5C 1860.5,1192.82 1860.67,1199.16 1860.5,1205.5C 1858.91,1197.66 1858.25,1189.66 1858.5,1181.5 Z"/></g>
<g><path style="opacity:1" fill="#dbd8d6" d="M 2189.5,1251.5 C 2192.29,1252.48 2195.29,1252.81 2198.5,1252.5C 2198.13,1262.34 2197.46,1272 2196.5,1281.5C 2182.79,1274.65 2169.13,1267.81 2155.5,1261C 2149.79,1257.97 2143.79,1255.81 2137.5,1254.5C 2131.89,1254.4 2127.22,1256.4 2123.5,1260.5C 2117.38,1266.41 2113.04,1273.41 2110.5,1281.5C 2114.84,1298.03 2120.68,1314.03 2128,1329.5C 2145.09,1367.02 2163.26,1404.02 2182.5,1440.5C 2181.07,1448.75 2178.91,1456.75 2176,1464.5C 2158.79,1430.85 2143.12,1396.52 2129,1361.5C 2116.6,1333.37 2102.6,1306.04 2087,1279.5C 2080.72,1270.38 2074.22,1261.38 2067.5,1252.5C 2072.19,1246.49 2077.19,1240.82 2082.5,1235.5C 2084.52,1236.18 2086.52,1236.84 2088.5,1237.5C 2089.96,1238.16 2091.63,1238.49 2093.5,1238.5C 2096.49,1238.62 2099.15,1237.95 2101.5,1236.5C 2108.69,1233.82 2115.69,1230.66 2122.5,1227C 2132.47,1224.05 2141.8,1225.39 2150.5,1231C 2159.88,1237.78 2169.72,1243.95 2180,1249.5C 2183.03,1250.87 2186.19,1251.54 2189.5,1251.5 Z"/></g>
<g><path style="opacity:0.996" fill="#aa9e94" d="M 2101.5,1236.5 C 2099.15,1237.95 2096.49,1238.62 2093.5,1238.5C 2091.63,1238.49 2089.96,1238.16 2088.5,1237.5C 2092.87,1237.53 2097.2,1237.2 2101.5,1236.5 Z"/></g>
<g><path style="opacity:1" fill="#80aec2" d="M 2208.5,1390.5 C 2209.89,1385.73 2210.56,1380.73 2210.5,1375.5C 2211.42,1371.01 2212.09,1366.34 2212.5,1361.5C 2212.58,1354.4 2213.24,1347.4 2214.5,1340.5C 2215.75,1329.67 2216.75,1318.67 2217.5,1307.5C 2217.92,1294.47 2218.58,1281.47 2219.5,1268.5C 2220.22,1263.94 2220.88,1259.27 2221.5,1254.5C 2222.84,1253.21 2224.51,1252.37 2226.5,1252C 2233.2,1250.86 2239.7,1249.36 2246,1247.5C 2270.77,1249.1 2290.77,1259.77 2306,1279.5C 2306.97,1281.27 2307.8,1283.11 2308.5,1285C 2279.3,1338.21 2248.14,1390.38 2215,1441.5C 2207.66,1450.87 2200.32,1460.21 2193,1469.5C 2192.83,1468.67 2192.67,1467.83 2192.5,1467C 2199.9,1442.01 2205.23,1416.51 2208.5,1390.5 Z"/></g>
<g><path style="opacity:1" fill="#fdfdfd" d="M 2196.5,1281.5 C 2196.5,1285.17 2196.5,1288.83 2196.5,1292.5C 2196.5,1293.5 2196.5,1294.5 2196.5,1295.5C 2194.81,1313.31 2193.81,1331.31 2193.5,1349.5C 2193.11,1356.5 2192.77,1363.5 2192.5,1370.5C 2191.68,1383.22 2190.35,1395.89 2188.5,1408.5C 2187.48,1411.97 2186.81,1415.64 2186.5,1419.5C 2186.05,1423.55 2185.38,1427.55 2184.5,1431.5C 2183.34,1434.27 2182.68,1437.27 2182.5,1440.5C 2163.26,1404.02 2145.09,1367.02 2128,1329.5C 2120.68,1314.03 2114.84,1298.03 2110.5,1281.5C 2113.04,1273.41 2117.38,1266.41 2123.5,1260.5C 2127.22,1256.4 2131.89,1254.4 2137.5,1254.5C 2143.79,1255.81 2149.79,1257.97 2155.5,1261C 2169.13,1267.81 2182.79,1274.65 2196.5,1281.5 Z"/></g>
<g><path style="opacity:1" fill="#6f6d6e" d="M 2221.5,1254.5 C 2220.88,1259.27 2220.22,1263.94 2219.5,1268.5C 2219.39,1267.88 2219.06,1267.38 2218.5,1267C 2218.82,1262.46 2219.82,1258.3 2221.5,1254.5 Z"/></g>
<g><path style="opacity:1" fill="#252223" d="M 2141.5,1269.5 C 2158.65,1268.51 2164.82,1276.17 2160,1292.5C 2150.82,1302.16 2142.15,1301.83 2134,1291.5C 2132.54,1287.26 2132.21,1282.93 2133,1278.5C 2135.36,1274.97 2138.2,1271.97 2141.5,1269.5 Z"/></g>
<g><path style="opacity:0.988" fill="#4d4748" d="M 2189.5,1251.5 C 2192.83,1251.5 2196.17,1251.5 2199.5,1251.5C 2199,1263.5 2198.5,1275.5 2198,1287.5C 2197.8,1289.38 2197.3,1291.05 2196.5,1292.5C 2196.5,1288.83 2196.5,1285.17 2196.5,1281.5C 2197.46,1272 2198.13,1262.34 2198.5,1252.5C 2195.29,1252.81 2192.29,1252.48 2189.5,1251.5 Z"/></g>
<g><path style="opacity:1" fill="#80afc2" d="M 2041.5,1273.5 C 2043.02,1274.17 2044.36,1275.17 2045.5,1276.5C 2049.44,1281.4 2053.27,1286.4 2057,1291.5C 2065.21,1305.57 2073.71,1319.57 2082.5,1333.5C 2090.74,1350.99 2099.24,1368.32 2108,1385.5C 2120.65,1414.62 2133.15,1443.79 2145.5,1473C 2136.09,1470.54 2126.59,1468.04 2117,1465.5C 2071.59,1448.35 2027.09,1428.85 1983.5,1407C 1968.7,1399.1 1954.04,1390.93 1939.5,1382.5C 1944.21,1364.75 1952.37,1348.75 1964,1334.5C 1973.54,1324.29 1983.7,1314.79 1994.5,1306C 2010.1,1294.87 2025.77,1284.04 2041.5,1273.5 Z"/></g>
<g><path style="opacity:1" fill="#d0cac6" d="M 2196.5,1295.5 C 2195.89,1313.5 2195.22,1331.5 2194.5,1349.5C 2194.17,1349.5 2193.83,1349.5 2193.5,1349.5C 2193.81,1331.31 2194.81,1313.31 2196.5,1295.5 Z"/></g>
<g><path style="opacity:0.988" fill="#555052" d="M 2217.5,1307.5 C 2216.75,1318.67 2215.75,1329.67 2214.5,1340.5C 2214.39,1339.88 2214.06,1339.38 2213.5,1339C 2214.45,1329.23 2215.28,1319.4 2216,1309.5C 2216.28,1308.58 2216.78,1307.92 2217.5,1307.5 Z"/></g>
<g><path style="opacity:1" fill="#487189" d="M 1766.5,1517.5 C 1757.55,1519.14 1748.88,1520.31 1740.5,1521C 1735.7,1513.92 1732.86,1506.09 1732,1497.5C 1729.23,1452.68 1730.4,1408.51 1735.5,1365C 1735.46,1352.71 1735.46,1340.21 1735.5,1327.5C 1735.37,1326.76 1735.54,1326.09 1736,1325.5C 1746,1337.5 1756,1349.5 1766,1361.5C 1766.24,1363.76 1766.74,1365.93 1767.5,1368C 1766.68,1417.96 1766.35,1467.8 1766.5,1517.5 Z"/></g>
<g><path style="opacity:1" fill="#262223" d="M 2156.5,1339.5 C 2172.25,1338.08 2178.75,1345.08 2176,1360.5C 2170.49,1369.33 2162.99,1371.5 2153.5,1367C 2144.85,1356.71 2145.85,1347.54 2156.5,1339.5 Z"/></g>
<g><path style="opacity:1" fill="#737172" d="M 2193.5,1349.5 C 2193.83,1349.5 2194.17,1349.5 2194.5,1349.5C 2194.65,1356.72 2193.98,1363.72 2192.5,1370.5C 2192.77,1363.5 2193.11,1356.5 2193.5,1349.5 Z"/></g>
<g><path style="opacity:0.988" fill="#564f4f" d="M 2212.5,1361.5 C 2212.09,1366.34 2211.42,1371.01 2210.5,1375.5C 2210.33,1371.49 2210.5,1367.49 2211,1363.5C 2211.28,1362.58 2211.78,1361.92 2212.5,1361.5 Z"/></g>
<g><path style="opacity:1" fill="#5c5e62" d="M 2210.5,1375.5 C 2210.56,1380.73 2209.89,1385.73 2208.5,1390.5C 2208.19,1385.23 2208.86,1380.23 2210.5,1375.5 Z"/></g>
<g><path style="opacity:0.988" fill="#5e5a5c" d="M 2188.5,1408.5 C 2188.67,1411.85 2188.5,1415.18 2188,1418.5C 2187.62,1419.06 2187.12,1419.39 2186.5,1419.5C 2186.81,1415.64 2187.48,1411.97 2188.5,1408.5 Z"/></g>
<g><path style="opacity:1" fill="#807d7b" d="M 2184.5,1431.5 C 2184.78,1434.83 2184.12,1437.83 2182.5,1440.5C 2182.68,1437.27 2183.34,1434.27 2184.5,1431.5 Z"/></g>
<g><path style="opacity:1" fill="#c5bfba" d="M 2522.5,1462.5 C 2516.8,1462.45 2511.14,1462.78 2505.5,1463.5C 2508.53,1461.98 2511.86,1461.31 2515.5,1461.5C 2518.03,1461.5 2520.36,1461.84 2522.5,1462.5 Z"/></g>
<g><path style="opacity:1" fill="#fdfdfd" d="M 2522.5,1462.5 C 2542.27,1467.1 2557.44,1478.1 2568,1495.5C 2578.03,1518.39 2585.53,1542.05 2590.5,1566.5C 2590.68,1568.94 2590.02,1571.1 2588.5,1573C 2588.83,1574.67 2589.17,1576.33 2589.5,1578C 2586.89,1603.43 2580.72,1628.6 2571,1653.5C 2568.65,1659.54 2565.81,1665.21 2562.5,1670.5C 2557.31,1669.53 2552.48,1669.53 2548,1670.5C 2545,1669.83 2542,1669.17 2539,1668.5C 2535.51,1668.43 2532.17,1668.77 2529,1669.5C 2524.33,1668.83 2519.67,1668.17 2515,1667.5C 2512.67,1667.83 2510.33,1668.17 2508,1668.5C 2503.67,1667.83 2499.33,1667.17 2495,1666.5C 2493.33,1666.83 2491.67,1667.17 2490,1667.5C 2484.67,1666.83 2479.33,1666.17 2474,1665.5C 2471.82,1665.43 2469.82,1665.76 2468,1666.5C 2458.55,1665.13 2449.21,1664.13 2440,1663.5C 2436.33,1663.83 2432.67,1664.17 2429,1664.5C 2426,1663.83 2423,1663.17 2420,1662.5C 2417,1662.83 2414,1663.17 2411,1663.5C 2406.22,1662.86 2401.38,1662.19 2396.5,1661.5C 2390.04,1613.62 2382.38,1566.28 2373.5,1519.5C 2373.95,1518.54 2374.62,1517.71 2375.5,1517C 2382.19,1513.63 2388.85,1510.3 2395.5,1507C 2419.6,1498.52 2443.77,1490.02 2468,1481.5C 2480.7,1475.9 2493.2,1469.9 2505.5,1463.5C 2511.14,1462.78 2516.8,1462.45 2522.5,1462.5 Z"/></g>
<g><path style="opacity:1" fill="#dbd8d7" d="M 2373.5,1519.5 C 2382.38,1566.28 2390.04,1613.62 2396.5,1661.5C 2401.38,1662.19 2406.22,1662.86 2411,1663.5C 2414,1663.17 2417,1662.83 2420,1662.5C 2423,1663.17 2426,1663.83 2429,1664.5C 2432.67,1664.17 2436.33,1663.83 2440,1663.5C 2449.21,1664.13 2458.55,1665.13 2468,1666.5C 2469.82,1665.76 2471.82,1665.43 2474,1665.5C 2479.33,1666.17 2484.67,1666.83 2490,1667.5C 2491.67,1667.17 2493.33,1666.83 2495,1666.5C 2499.33,1667.17 2503.67,1667.83 2508,1668.5C 2510.33,1668.17 2512.67,1667.83 2515,1667.5C 2519.67,1668.17 2524.33,1668.83 2529,1669.5C 2532.17,1668.77 2535.51,1668.43 2539,1668.5C 2542,1669.17 2545,1669.83 2548,1670.5C 2552.48,1669.53 2557.31,1669.53 2562.5,1670.5C 2565.81,1665.21 2568.65,1659.54 2571,1653.5C 2580.72,1628.6 2586.89,1603.43 2589.5,1578C 2589.17,1576.33 2588.83,1574.67 2588.5,1573C 2590.02,1571.1 2590.68,1568.94 2590.5,1566.5C 2595.38,1587.69 2600.21,1609.03 2605,1630.5C 2608.94,1667.18 2597.44,1698.02 2570.5,1723C 2565,1726.59 2559.33,1729.92 2553.5,1733C 2540.38,1736.69 2527.05,1739.19 2513.5,1740.5C 2497.5,1741.8 2481.5,1741.8 2465.5,1740.5C 2458.46,1739.83 2451.79,1738 2445.5,1735C 2451.34,1731.22 2457.67,1728.72 2464.5,1727.5C 2470.41,1726.69 2476.08,1725.36 2481.5,1723.5C 2484.91,1723.04 2488.24,1722.38 2491.5,1721.5C 2497.46,1721.45 2503.13,1720.45 2508.5,1718.5C 2511.94,1718.21 2515.27,1717.55 2518.5,1716.5C 2523.22,1716.63 2527.55,1715.63 2531.5,1713.5C 2532.77,1712.91 2534.1,1712.41 2535.5,1712C 2532.46,1709.98 2529.12,1708.81 2525.5,1708.5C 2525.39,1707.88 2525.06,1707.38 2524.5,1707C 2520.56,1705.98 2516.56,1705.48 2512.5,1705.5C 2511.83,1705.5 2511.17,1705.5 2510.5,1705.5C 2500.05,1703.81 2489.38,1703.14 2478.5,1703.5C 2470.02,1703.59 2461.35,1704.26 2452.5,1705.5C 2448.48,1705.39 2444.14,1705.39 2439.5,1705.5C 2434.88,1705.16 2430.54,1705.82 2426.5,1707.5C 2413.29,1707.72 2401.29,1708.06 2390.5,1708.5C 2388.74,1707.54 2386.74,1707.21 2384.5,1707.5C 2383.97,1702.18 2383.47,1696.84 2383,1691.5C 2382.77,1690.26 2382.27,1689.26 2381.5,1688.5C 2381.22,1679.46 2380.55,1670.46 2379.5,1661.5C 2379.33,1654.15 2378.83,1646.81 2378,1639.5C 2377.77,1638.26 2377.27,1637.26 2376.5,1636.5C 2376.46,1631.81 2376.13,1627.14 2375.5,1622.5C 2375.55,1615.86 2374.55,1609.53 2372.5,1603.5C 2370.2,1579.03 2365.53,1555.03 2358.5,1531.5C 2362.49,1526.33 2367.49,1522.33 2373.5,1519.5 Z"/></g>
<g><path style="opacity:1" fill="#7a7777" d="M 2503.5,1519.5 C 2497.37,1520.75 2491.04,1521.41 2484.5,1521.5C 2490.61,1520 2496.94,1519.34 2503.5,1519.5 Z"/></g>
<g><path style="opacity:1" fill="#262223" d="M 2503.5,1519.5 C 2505.2,1519.34 2506.87,1519.51 2508.5,1520C 2499.55,1522.82 2490.89,1526.32 2482.5,1530.5C 2466.97,1540.64 2450.97,1550.14 2434.5,1559C 2426.3,1562.9 2417.63,1565.06 2408.5,1565.5C 2405.94,1565.8 2403.61,1565.47 2401.5,1564.5C 2409.84,1553.01 2420.17,1543.84 2432.5,1537C 2449,1529.11 2466.33,1523.95 2484.5,1521.5C 2491.04,1521.41 2497.37,1520.75 2503.5,1519.5 Z"/></g>
<g><path style="opacity:0.988" fill="#464144" d="M 1992.5,1532.5 C 1983.15,1532.48 1973.82,1532.82 1964.5,1533.5C 1969.75,1531.98 1975.25,1531.31 1981,1531.5C 1985.02,1531.5 1988.85,1531.83 1992.5,1532.5 Z"/></g>
<g><path style="opacity:0.988" fill="#514b4d" d="M 2037.5,1532.5 C 2040.31,1531.84 2043.31,1531.5 2046.5,1531.5C 2057.05,1531.8 2067.38,1532.8 2077.5,1534.5C 2064.18,1533.61 2050.85,1532.95 2037.5,1532.5 Z"/></g>
<g><path style="opacity:1" fill="#fefefe" d="M 1992.5,1532.5 C 2007.5,1532.5 2022.5,1532.5 2037.5,1532.5C 2050.85,1532.95 2064.18,1533.61 2077.5,1534.5C 2086.5,1535.17 2095.5,1535.83 2104.5,1536.5C 2107.95,1537.69 2111.61,1538.35 2115.5,1538.5C 2116.17,1538.5 2116.83,1538.5 2117.5,1538.5C 2116.24,1581.09 2115.58,1622.25 2115.5,1662C 2116.17,1672.67 2116.83,1683.33 2117.5,1694C 2116.73,1702.77 2116.4,1711.44 2116.5,1720C 2117.17,1724.67 2117.83,1729.33 2118.5,1734C 2118.66,1738.76 2118.32,1743.76 2117.5,1749C 2118.17,1753 2118.83,1757 2119.5,1761C 2119.17,1764 2118.83,1767 2118.5,1770C 2119.13,1780.54 2120.13,1791.21 2121.5,1802C 2121.17,1803.67 2120.83,1805.33 2120.5,1807C 2121.87,1815.51 2122.87,1823.84 2123.5,1832C 2122.63,1834.03 2122.29,1836.37 2122.5,1839C 2123.49,1844.7 2124.49,1850.7 2125.5,1857C 2125.17,1858 2124.83,1859 2124.5,1860C 2125.17,1863 2125.83,1866 2126.5,1869C 2126.17,1870 2125.83,1871 2125.5,1872C 2126.17,1874.67 2126.83,1877.33 2127.5,1880C 2127.38,1881.27 2127.05,1882.6 2126.5,1884C 2128.18,1886.97 2128.51,1889.64 2127.5,1892C 2128.17,1894.33 2128.83,1896.67 2129.5,1899C 2129.17,1899.33 2128.83,1899.67 2128.5,1900C 2129.17,1902.67 2129.83,1905.33 2130.5,1908C 2130.5,1911.33 2130.5,1914.67 2130.5,1918C 2132.01,1921.34 2132.35,1924.34 2131.5,1927C 2133.18,1929.97 2133.51,1932.64 2132.5,1935C 2133.17,1936.67 2133.83,1938.33 2134.5,1940C 2134.17,1940.33 2133.83,1940.67 2133.5,1941C 2134.17,1943 2134.83,1945 2135.5,1947C 2135.17,1947.33 2134.83,1947.67 2134.5,1948C 2135.17,1950 2135.83,1952 2136.5,1954C 2136.5,1956.67 2136.5,1959.33 2136.5,1962C 2138.5,1971.67 2140.5,1981.33 2142.5,1991C 2142.17,1991.33 2141.83,1991.67 2141.5,1992C 2142.5,1995 2143.5,1998 2144.5,2001C 2144.17,2001.33 2143.83,2001.67 2143.5,2002C 2145.03,2005.01 2145.53,2008.17 2145,2011.5C 2101.85,2036.25 2056.35,2053.92 2008.5,2064.5C 1985.78,2063.55 1963.12,2061.88 1940.5,2059.5C 1935.02,2058.2 1929.35,2057.2 1923.5,2056.5C 1911.92,2055.57 1900.58,2053.57 1889.5,2050.5C 1886.04,2049.13 1882.37,2048.13 1878.5,2047.5C 1872.1,2046.77 1865.76,2045.6 1859.5,2044C 1852.15,2041.83 1844.82,2039.66 1837.5,2037.5C 1822.53,1991.3 1809.19,1944.63 1797.5,1897.5C 1797.83,1894.77 1797.16,1892.44 1795.5,1890.5C 1794.79,1884.34 1793.46,1878.34 1791.5,1872.5C 1790.99,1868.26 1789.99,1864.26 1788.5,1860.5C 1778.02,1811.41 1768.68,1762.07 1760.5,1712.5C 1760.19,1708.64 1759.52,1704.97 1758.5,1701.5C 1756.98,1691.87 1755.65,1682.21 1754.5,1672.5C 1754.28,1668.29 1753.62,1664.29 1752.5,1660.5C 1751.65,1654.86 1750.98,1649.19 1750.5,1643.5C 1750.23,1638.97 1749.56,1634.64 1748.5,1630.5C 1747.34,1621.86 1746.34,1613.2 1745.5,1604.5C 1745.19,1599.65 1744.52,1594.98 1743.5,1590.5C 1742.28,1580.2 1741.28,1569.87 1740.5,1559.5C 1746.5,1558.83 1752.5,1558.17 1758.5,1557.5C 1762.16,1557.05 1765.83,1556.55 1769.5,1556C 1770.42,1555.72 1771.08,1555.22 1771.5,1554.5C 1774.81,1553.95 1778.14,1553.62 1781.5,1553.5C 1791.43,1552.56 1801.1,1550.89 1810.5,1548.5C 1816.14,1547.65 1821.81,1546.98 1827.5,1546.5C 1833.05,1546.47 1838.38,1545.81 1843.5,1544.5C 1853.02,1542.77 1862.69,1541.43 1872.5,1540.5C 1877.18,1540.67 1881.85,1540.5 1886.5,1540C 1887.74,1539.77 1888.74,1539.27 1889.5,1538.5C 1896.15,1537.95 1902.82,1537.61 1909.5,1537.5C 1915.33,1537.03 1921,1536.36 1926.5,1535.5C 1939.09,1534.41 1951.75,1533.75 1964.5,1533.5C 1973.82,1532.82 1983.15,1532.48 1992.5,1532.5 Z"/></g>
<g><path style="opacity:1" fill="#fdfcfc" d="M 2348.5,1612.5 C 2348.33,1615.85 2348.5,1619.18 2349,1622.5C 2349.28,1623.42 2349.78,1624.08 2350.5,1624.5C 2351.73,1634.83 2352.73,1645.17 2353.5,1655.5C 2353.5,1660.5 2353.5,1665.5 2353.5,1670.5C 2352.88,1670.39 2352.38,1670.06 2352,1669.5C 2335.53,1675.93 2319.03,1682.27 2302.5,1688.5C 2299.48,1662.72 2295.82,1637.05 2291.5,1611.5C 2291.66,1606.13 2290.66,1601.13 2288.5,1596.5C 2286.93,1586.54 2285.6,1576.54 2284.5,1566.5C 2284.12,1561.99 2283.45,1557.66 2282.5,1553.5C 2282.5,1552.83 2282.5,1552.17 2282.5,1551.5C 2282.75,1547.54 2282.08,1543.88 2280.5,1540.5C 2280.23,1537.88 2280.56,1535.38 2281.5,1533C 2293.14,1531.73 2304.81,1531.39 2316.5,1532C 2319.33,1532.05 2321.83,1532.88 2324,1534.5C 2336.8,1559 2344.96,1585 2348.5,1612.5 Z"/></g>
<g><path style="opacity:1" fill="#837f7d" d="M 1926.5,1535.5 C 1921,1536.36 1915.33,1537.03 1909.5,1537.5C 1910.26,1536.73 1911.26,1536.23 1912.5,1536C 1917.15,1535.5 1921.82,1535.33 1926.5,1535.5 Z"/></g>
<g><path style="opacity:0.988" fill="#4f4d51" d="M 2104.5,1536.5 C 2107.52,1536.34 2110.52,1536.5 2113.5,1537C 2114.42,1537.28 2115.08,1537.78 2115.5,1538.5C 2111.61,1538.35 2107.95,1537.69 2104.5,1536.5 Z"/></g>
<g><path style="opacity:1" fill="#48718a" d="M 2244.5,1583.5 C 2244.67,1584.82 2244.34,1585.99 2243.5,1587C 2227.36,1596.03 2210.53,1602.2 2193,1605.5C 2187.73,1605.56 2182.57,1605.23 2177.5,1604.5C 2177.81,1601.61 2177.47,1598.95 2176.5,1596.5C 2176.5,1579.17 2176.5,1561.83 2176.5,1544.5C 2196.09,1539.08 2215.76,1537.24 2235.5,1539C 2239.97,1553.51 2242.97,1568.35 2244.5,1583.5 Z"/></g>
<g><path style="opacity:1" fill="#b6b1ad" d="M 1889.5,1538.5 C 1888.74,1539.27 1887.74,1539.77 1886.5,1540C 1881.85,1540.5 1877.18,1540.67 1872.5,1540.5C 1877.98,1539.48 1883.65,1538.82 1889.5,1538.5 Z"/></g>
<g><path style="opacity:1" fill="#dcd9d8" d="M 2117.5,1538.5 C 2119.12,1539.04 2120.78,1539.37 2122.5,1539.5C 2126.57,1541.05 2130.9,1541.72 2135.5,1541.5C 2139.43,1542.55 2143.43,1543.22 2147.5,1543.5C 2147.77,1548.45 2148.77,1553.12 2150.5,1557.5C 2151.24,1566.83 2151.91,1576.16 2152.5,1585.5C 2153.03,1597.02 2154.03,1608.35 2155.5,1619.5C 2155.5,1621.83 2155.5,1624.17 2155.5,1626.5C 2156.27,1646 2157.27,1665.33 2158.5,1684.5C 2158.5,1687.5 2158.5,1690.5 2158.5,1693.5C 2158.14,1704.38 2158.81,1715.05 2160.5,1725.5C 2160.5,1727.17 2160.5,1728.83 2160.5,1730.5C 2161.15,1739.35 2162.15,1748.01 2163.5,1756.5C 2163.5,1757.5 2163.5,1758.5 2163.5,1759.5C 2163.33,1763.51 2163.5,1767.51 2164,1771.5C 2164.23,1772.74 2164.73,1773.74 2165.5,1774.5C 2165.5,1777.83 2165.5,1781.17 2165.5,1784.5C 2166.46,1797.65 2167.46,1810.65 2168.5,1823.5C 2169.12,1849.17 2169.79,1874.83 2170.5,1900.5C 2171.06,1915.18 2171.72,1929.84 2172.5,1944.5C 2172.5,1949.53 2172.84,1954.53 2173.5,1959.5C 2173.12,1967.74 2173.78,1975.74 2175.5,1983.5C 2176.25,1992.54 2177.25,2001.54 2178.5,2010.5C 2178.23,2015.43 2178.9,2020.1 2180.5,2024.5C 2181.34,2030.02 2182.34,2035.52 2183.5,2041C 2183.25,2042.33 2182.58,2043.33 2181.5,2044C 2151.82,2053.29 2121.48,2059.12 2090.5,2061.5C 2079.02,2062.5 2067.69,2063.5 2056.5,2064.5C 2040.71,2064.46 2024.71,2064.46 2008.5,2064.5C 2056.35,2053.92 2101.85,2036.25 2145,2011.5C 2145.53,2008.17 2145.03,2005.01 2143.5,2002C 2143.83,2001.67 2144.17,2001.33 2144.5,2001C 2143.5,1998 2142.5,1995 2141.5,1992C 2141.83,1991.67 2142.17,1991.33 2142.5,1991C 2140.5,1981.33 2138.5,1971.67 2136.5,1962C 2136.5,1959.33 2136.5,1956.67 2136.5,1954C 2135.83,1952 2135.17,1950 2134.5,1948C 2134.83,1947.67 2135.17,1947.33 2135.5,1947C 2134.83,1945 2134.17,1943 2133.5,1941C 2133.83,1940.67 2134.17,1940.33 2134.5,1940C 2133.83,1938.33 2133.17,1936.67 2132.5,1935C 2133.51,1932.64 2133.18,1929.97 2131.5,1927C 2132.35,1924.34 2132.01,1921.34 2130.5,1918C 2130.5,1914.67 2130.5,1911.33 2130.5,1908C 2129.83,1905.33 2129.17,1902.67 2128.5,1900C 2128.83,1899.67 2129.17,1899.33 2129.5,1899C 2128.83,1896.67 2128.17,1894.33 2127.5,1892C 2128.51,1889.64 2128.18,1886.97 2126.5,1884C 2127.05,1882.6 2127.38,1881.27 2127.5,1880C 2126.83,1877.33 2126.17,1874.67 2125.5,1872C 2125.83,1871 2126.17,1870 2126.5,1869C 2125.83,1866 2125.17,1863 2124.5,1860C 2124.83,1859 2125.17,1858 2125.5,1857C 2124.49,1850.7 2123.49,1844.7 2122.5,1839C 2122.29,1836.37 2122.63,1834.03 2123.5,1832C 2122.87,1823.84 2121.87,1815.51 2120.5,1807C 2120.83,1805.33 2121.17,1803.67 2121.5,1802C 2120.13,1791.21 2119.13,1780.54 2118.5,1770C 2118.83,1767 2119.17,1764 2119.5,1761C 2118.83,1757 2118.17,1753 2117.5,1749C 2118.32,1743.76 2118.66,1738.76 2118.5,1734C 2117.83,1729.33 2117.17,1724.67 2116.5,1720C 2116.4,1711.44 2116.73,1702.77 2117.5,1694C 2116.83,1683.33 2116.17,1672.67 2115.5,1662C 2115.58,1622.25 2116.24,1581.09 2117.5,1538.5 Z"/></g>
<g><path style="opacity:0.996" fill="#978f89" d="M 2122.5,1539.5 C 2127.08,1539.44 2131.41,1540.1 2135.5,1541.5C 2130.9,1541.72 2126.57,1541.05 2122.5,1539.5 Z"/></g>
<g><path style="opacity:1" fill="#c5bfbc" d="M 1843.5,1544.5 C 1838.38,1545.81 1833.05,1546.47 1827.5,1546.5C 1832.55,1544.74 1837.89,1544.07 1843.5,1544.5 Z"/></g>
<g><path style="opacity:1" fill="#717173" d="M 2280.5,1540.5 C 2282.08,1543.88 2282.75,1547.54 2282.5,1551.5C 2281.31,1548.05 2280.65,1544.39 2280.5,1540.5 Z"/></g>
<g><path style="opacity:0.996" fill="#978e88" d="M 2147.5,1543.5 C 2149.23,1547.88 2150.23,1552.55 2150.5,1557.5C 2148.77,1553.12 2147.77,1548.45 2147.5,1543.5 Z"/></g>
<g><path style="opacity:1" fill="#b7b1ae" d="M 1810.5,1548.5 C 1801.1,1550.89 1791.43,1552.56 1781.5,1553.5C 1781.92,1552.78 1782.58,1552.28 1783.5,1552C 1792.48,1550.6 1801.48,1549.43 1810.5,1548.5 Z"/></g>
<g><path style="opacity:1" fill="#bbb5b1" d="M 1771.5,1554.5 C 1771.08,1555.22 1770.42,1555.72 1769.5,1556C 1765.83,1556.55 1762.16,1557.05 1758.5,1557.5C 1762.48,1555.55 1766.81,1554.55 1771.5,1554.5 Z"/></g>
<g><path style="opacity:1" fill="#487089" d="M 1624.5,1557.5 C 1628.44,1559.07 1632.61,1560.07 1637,1560.5C 1649.16,1559.8 1661.49,1558.8 1674,1557.5C 1681.96,1557.4 1690.13,1557.57 1698.5,1558C 1705.32,1558.56 1711.99,1559.9 1718.5,1562C 1719.85,1562.77 1720.68,1563.94 1721,1565.5C 1721.83,1574.84 1722.67,1584.17 1723.5,1593.5C 1722.78,1593.92 1722.28,1594.58 1722,1595.5C 1720.29,1594.24 1718.63,1593.9 1717,1594.5C 1713.02,1593.39 1709.02,1592.39 1705,1591.5C 1704.67,1591.83 1704.33,1592.17 1704,1592.5C 1695.84,1591.2 1687.51,1589.53 1679,1587.5C 1678.67,1587.83 1678.33,1588.17 1678,1588.5C 1676.29,1587.24 1674.63,1586.9 1673,1587.5C 1666.92,1586.35 1660.59,1585.02 1654,1583.5C 1651.33,1583.5 1648.67,1583.5 1646,1583.5C 1633.1,1575.63 1620.6,1567.13 1608.5,1558C 1613.42,1557.81 1618.25,1557.31 1623,1556.5C 1623.38,1557.06 1623.88,1557.39 1624.5,1557.5 Z"/></g>
<g><path style="opacity:0.988" fill="#5d5656" d="M 2282.5,1553.5 C 2283.45,1557.66 2284.12,1561.99 2284.5,1566.5C 2283.73,1565.74 2283.23,1564.74 2283,1563.5C 2282.5,1560.18 2282.33,1556.85 2282.5,1553.5 Z"/></g>
<g><path style="opacity:1" fill="#757171" d="M 2401.5,1564.5 C 2403.61,1565.47 2405.94,1565.8 2408.5,1565.5C 2405.98,1566.8 2403.31,1566.8 2400.5,1565.5C 2400.62,1564.89 2400.96,1564.56 2401.5,1564.5 Z"/></g>
<g><path style="opacity:1" fill="#272325" d="M 2517.5,1581.5 C 2519.91,1582.77 2522.57,1583.43 2525.5,1583.5C 2525.83,1583.5 2526.17,1583.5 2526.5,1583.5C 2527.26,1584.27 2528.26,1584.77 2529.5,1585C 2527.62,1585.2 2525.95,1585.7 2524.5,1586.5C 2510.55,1588.2 2496.55,1589.53 2482.5,1590.5C 2478.45,1590.39 2474.45,1590.73 2470.5,1591.5C 2464.26,1592.46 2457.92,1592.79 2451.5,1592.5C 2441.82,1592.43 2432.16,1592.09 2422.5,1591.5C 2425.54,1587.29 2429.38,1583.96 2434,1581.5C 2450.33,1575.8 2467.16,1573.97 2484.5,1576C 2495.7,1576.98 2506.7,1578.81 2517.5,1581.5 Z"/></g>
<g><path style="opacity:0.996" fill="#8c8783" d="M 2517.5,1581.5 C 2520.5,1581.29 2523.16,1581.96 2525.5,1583.5C 2522.57,1583.43 2519.91,1582.77 2517.5,1581.5 Z"/></g>
<g><path style="opacity:1" fill="#335061" d="M 2244.5,1583.5 C 2247.72,1601.94 2249.72,1620.44 2250.5,1639C 2251.05,1646.93 2252.05,1654.93 2253.5,1663C 2253.17,1664 2252.83,1665 2252.5,1666C 2253.17,1669.67 2253.83,1673.33 2254.5,1677C 2254.17,1678 2253.83,1679 2253.5,1680C 2254.95,1688.07 2255.95,1696.07 2256.5,1704C 2256.38,1705.27 2256.05,1706.6 2255.5,1708C 2256.17,1710.67 2256.83,1713.33 2257.5,1716C 2257.5,1720.67 2257.5,1725.33 2257.5,1730C 2258.7,1737.76 2259.7,1745.59 2260.5,1753.5C 2260.3,1755.29 2259.47,1756.62 2258,1757.5C 2257.67,1757.17 2257.33,1756.83 2257,1756.5C 2250,1758.94 2243,1760.27 2236,1760.5C 2231.33,1761.93 2226.33,1763.26 2221,1764.5C 2220.67,1764.17 2220.33,1763.83 2220,1763.5C 2209.24,1765.73 2198.4,1767.73 2187.5,1769.5C 2186.91,1769.29 2186.41,1768.96 2186,1768.5C 2183.87,1739.95 2181.71,1711.11 2179.5,1682C 2179.83,1680.33 2180.17,1678.67 2180.5,1677C 2179.83,1672.67 2179.17,1668.33 2178.5,1664C 2178.83,1661.67 2179.17,1659.33 2179.5,1657C 2178.83,1651 2178.17,1645 2177.5,1639C 2177.83,1637.33 2178.17,1635.67 2178.5,1634C 2177.52,1621.35 2176.86,1608.85 2176.5,1596.5C 2177.47,1598.95 2177.81,1601.61 2177.5,1604.5C 2182.57,1605.23 2187.73,1605.56 2193,1605.5C 2210.53,1602.2 2227.36,1596.03 2243.5,1587C 2244.34,1585.99 2244.67,1584.82 2244.5,1583.5 Z"/></g>
<g><path style="opacity:0.996" fill="#9c928b" d="M 2152.5,1585.5 C 2153.3,1586.95 2153.8,1588.62 2154,1590.5C 2154.71,1600.16 2155.21,1609.83 2155.5,1619.5C 2154.03,1608.35 2153.03,1597.02 2152.5,1585.5 Z"/></g>
<g><path style="opacity:0.996" fill="#a19995" d="M 2526.5,1583.5 C 2528.43,1583.23 2530.1,1583.73 2531.5,1585C 2529.41,1586.35 2527.07,1586.85 2524.5,1586.5C 2525.95,1585.7 2527.62,1585.2 2529.5,1585C 2528.26,1584.77 2527.26,1584.27 2526.5,1583.5 Z"/></g>
<g><path style="opacity:1" fill="#c1bbb8" d="M 2482.5,1590.5 C 2480.32,1591.93 2477.82,1592.59 2475,1592.5C 2473.29,1592.49 2471.79,1592.16 2470.5,1591.5C 2474.45,1590.73 2478.45,1590.39 2482.5,1590.5 Z"/></g>
<g><path style="opacity:1" fill="#ada9a6" d="M 2422.5,1591.5 C 2432.16,1592.09 2441.82,1592.43 2451.5,1592.5C 2443.34,1593.66 2435.01,1593.82 2426.5,1593C 2424.94,1592.79 2423.61,1592.29 2422.5,1591.5 Z"/></g>
<g><path style="opacity:0.988" fill="#5d5454" d="M 1743.5,1590.5 C 1744.52,1594.98 1745.19,1599.65 1745.5,1604.5C 1744.73,1603.74 1744.23,1602.74 1744,1601.5C 1743.5,1597.85 1743.33,1594.18 1743.5,1590.5 Z"/></g>
<g><path style="opacity:1" fill="#c2bcb8" d="M 2288.5,1596.5 C 2290.66,1601.13 2291.66,1606.13 2291.5,1611.5C 2290.14,1606.7 2289.14,1601.7 2288.5,1596.5 Z"/></g>
<g><path style="opacity:0.996" fill="#888380" d="M 2372.5,1603.5 C 2374.55,1609.53 2375.55,1615.86 2375.5,1622.5C 2374.1,1616.36 2373.1,1610.03 2372.5,1603.5 Z"/></g>
<g><path style="opacity:1" fill="#b5afac" d="M 2348.5,1612.5 C 2349.62,1616.29 2350.28,1620.29 2350.5,1624.5C 2349.78,1624.08 2349.28,1623.42 2349,1622.5C 2348.5,1619.18 2348.33,1615.85 2348.5,1612.5 Z"/></g>
<g><path style="opacity:1" fill="#7e7a79" d="M 2467.5,1627.5 C 2475.73,1627.18 2483.73,1627.84 2491.5,1629.5C 2483.32,1629.22 2475.32,1628.56 2467.5,1627.5 Z"/></g>
<g><path style="opacity:1" fill="#262223" d="M 2467.5,1627.5 C 2475.32,1628.56 2483.32,1629.22 2491.5,1629.5C 2497.45,1630.66 2503.45,1631.66 2509.5,1632.5C 2512.22,1633.91 2515.22,1634.58 2518.5,1634.5C 2526.36,1636.23 2534.02,1638.56 2541.5,1641.5C 2537.7,1642.48 2533.7,1642.82 2529.5,1642.5C 2528.17,1643.83 2526.83,1643.83 2525.5,1642.5C 2500.48,1642.75 2475.48,1642.42 2450.5,1641.5C 2440.46,1641.53 2430.46,1640.87 2420.5,1639.5C 2426.64,1633.6 2433.97,1630.1 2442.5,1629C 2450.78,1627.71 2459.11,1627.21 2467.5,1627.5 Z"/></g>
<g><path style="opacity:0.988" fill="#4f4c4f" d="M 2155.5,1626.5 C 2156.29,1627.61 2156.79,1628.94 2157,1630.5C 2157.83,1648.49 2158.33,1666.49 2158.5,1684.5C 2157.27,1665.33 2156.27,1646 2155.5,1626.5 Z"/></g>
<g><path style="opacity:0.996" fill="#8e8783" d="M 2509.5,1632.5 C 2512.78,1632.42 2515.78,1633.09 2518.5,1634.5C 2515.22,1634.58 2512.22,1633.91 2509.5,1632.5 Z"/></g>
<g><path style="opacity:0.988" fill="#605a5a" d="M 1748.5,1630.5 C 1749.56,1634.64 1750.23,1638.97 1750.5,1643.5C 1749.73,1642.74 1749.23,1641.74 1749,1640.5C 1748.5,1637.18 1748.33,1633.85 1748.5,1630.5 Z"/></g>
<g><path style="opacity:0.996" fill="#8c8682" d="M 2376.5,1636.5 C 2377.27,1637.26 2377.77,1638.26 2378,1639.5C 2378.83,1646.81 2379.33,1654.15 2379.5,1661.5C 2378.09,1653.35 2377.09,1645.02 2376.5,1636.5 Z"/></g>
<g><path style="opacity:1" fill="#b9b2ae" d="M 2450.5,1641.5 C 2475.48,1642.42 2500.48,1642.75 2525.5,1642.5C 2506.76,1643.17 2487.93,1643.84 2469,1644.5C 2462.66,1644 2456.49,1643 2450.5,1641.5 Z"/></g>
<g><path style="opacity:1" fill="#8e8681" d="M 2541.5,1641.5 C 2543.38,1641.39 2543.71,1641.89 2542.5,1643C 2537.98,1643.81 2533.65,1643.65 2529.5,1642.5C 2533.7,1642.82 2537.7,1642.48 2541.5,1641.5 Z"/></g>
<g><path style="opacity:0.988" fill="#605d5f" d="M 1752.5,1660.5 C 1753.62,1664.29 1754.28,1668.29 1754.5,1672.5C 1752.75,1668.82 1752.08,1664.82 1752.5,1660.5 Z"/></g>
<g><path style="opacity:1" fill="#dcd9d8" d="M 2353.5,1670.5 C 2353.82,1677.35 2354.48,1684.01 2355.5,1690.5C 2355.5,1690.83 2355.5,1691.17 2355.5,1691.5C 2354.8,1699.07 2354.14,1706.73 2353.5,1714.5C 2344.78,1717.02 2336.11,1719.85 2327.5,1723C 2322.31,1724.8 2316.98,1725.63 2311.5,1725.5C 2310.17,1725.5 2308.83,1725.5 2307.5,1725.5C 2307.16,1719.58 2306.16,1713.91 2304.5,1708.5C 2304.33,1701.78 2303.66,1695.11 2302.5,1688.5C 2319.03,1682.27 2335.53,1675.93 2352,1669.5C 2352.38,1670.06 2352.88,1670.39 2353.5,1670.5 Z"/></g>
<g><path style="opacity:1" fill="#7b7877" d="M 2353.5,1655.5 C 2354.66,1666.99 2355.33,1678.65 2355.5,1690.5C 2354.48,1684.01 2353.82,1677.35 2353.5,1670.5C 2353.5,1665.5 2353.5,1660.5 2353.5,1655.5 Z"/></g>
<g><path style="opacity:0.996" fill="#8a8481" d="M 2381.5,1688.5 C 2382.27,1689.26 2382.77,1690.26 2383,1691.5C 2383.47,1696.84 2383.97,1702.18 2384.5,1707.5C 2386.74,1707.21 2388.74,1707.54 2390.5,1708.5C 2388.17,1708.5 2385.83,1708.5 2383.5,1708.5C 2382.72,1701.85 2382.06,1695.18 2381.5,1688.5 Z"/></g>
<g><path style="opacity:0.996" fill="#8a8380" d="M 2355.5,1691.5 C 2356.13,1699.57 2355.47,1707.24 2353.5,1714.5C 2354.14,1706.73 2354.8,1699.07 2355.5,1691.5 Z"/></g>
<g><path style="opacity:0.988" fill="#4a484c" d="M 2478.5,1703.5 C 2489.38,1703.14 2500.05,1703.81 2510.5,1705.5C 2499.65,1705.28 2488.99,1704.61 2478.5,1703.5 Z"/></g>
<g><path style="opacity:0.996" fill="#968d88" d="M 2158.5,1693.5 C 2159.56,1703.99 2160.23,1714.66 2160.5,1725.5C 2158.81,1715.05 2158.14,1704.38 2158.5,1693.5 Z"/></g>
<g><path style="opacity:0.996" fill="#9c928b" d="M 2439.5,1705.5 C 2439.5,1705.83 2439.5,1706.17 2439.5,1706.5C 2435.16,1706.74 2430.82,1707.07 2426.5,1707.5C 2430.54,1705.82 2434.88,1705.16 2439.5,1705.5 Z"/></g>
<g><path style="opacity:0.988" fill="#504e51" d="M 2452.5,1705.5 C 2448.37,1706.48 2444.03,1706.82 2439.5,1706.5C 2439.5,1706.17 2439.5,1705.83 2439.5,1705.5C 2444.14,1705.39 2448.48,1705.39 2452.5,1705.5 Z"/></g>
<g><path style="opacity:0.996" fill="#8d8683" d="M 2512.5,1705.5 C 2516.56,1705.48 2520.56,1705.98 2524.5,1707C 2525.06,1707.38 2525.39,1707.88 2525.5,1708.5C 2521.03,1707.61 2516.69,1706.61 2512.5,1705.5 Z"/></g>
<g><path style="opacity:0.988" fill="#5a5658" d="M 1758.5,1701.5 C 1759.52,1704.97 1760.19,1708.64 1760.5,1712.5C 1759.88,1712.39 1759.38,1712.06 1759,1711.5C 1758.5,1708.18 1758.33,1704.85 1758.5,1701.5 Z"/></g>
<g><path style="opacity:0.996" fill="#948c87" d="M 2304.5,1708.5 C 2306.16,1713.91 2307.16,1719.58 2307.5,1725.5C 2308.83,1725.5 2310.17,1725.5 2311.5,1725.5C 2309.78,1726.81 2307.94,1726.81 2306,1725.5C 2305.55,1719.82 2305.05,1714.15 2304.5,1708.5 Z"/></g>
<g><path style="opacity:0.996" fill="#918984" d="M 2531.5,1713.5 C 2527.55,1715.63 2523.22,1716.63 2518.5,1716.5C 2522.63,1715.14 2526.97,1714.14 2531.5,1713.5 Z"/></g>
<g><path style="opacity:0.996" fill="#908985" d="M 2508.5,1718.5 C 2503.13,1720.45 2497.46,1721.45 2491.5,1721.5C 2496.95,1719.98 2502.61,1718.98 2508.5,1718.5 Z"/></g>
<g><path style="opacity:0.996" fill="#948d88" d="M 2481.5,1723.5 C 2476.08,1725.36 2470.41,1726.69 2464.5,1727.5C 2469.82,1725.17 2475.48,1723.83 2481.5,1723.5 Z"/></g>
<g><path style="opacity:0.988" fill="#4e494c" d="M 2160.5,1730.5 C 2161.27,1731.26 2161.77,1732.26 2162,1733.5C 2162.78,1741.15 2163.28,1748.82 2163.5,1756.5C 2162.15,1748.01 2161.15,1739.35 2160.5,1730.5 Z"/></g>
<g><path style="opacity:1" fill="#797776" d="M 2465.5,1740.5 C 2481.5,1741.8 2497.5,1741.8 2513.5,1740.5C 2497.49,1743.09 2481.49,1743.09 2465.5,1740.5 Z"/></g>
<g><path style="opacity:0.996" fill="#8c8682" d="M 2163.5,1759.5 C 2164.4,1764.33 2165.07,1769.33 2165.5,1774.5C 2164.73,1773.74 2164.23,1772.74 2164,1771.5C 2163.5,1767.51 2163.33,1763.51 2163.5,1759.5 Z"/></g>
<g><path style="opacity:0.988" fill="#514d4f" d="M 2165.5,1784.5 C 2166.22,1784.92 2166.72,1785.58 2167,1786.5C 2167.99,1798.82 2168.49,1811.15 2168.5,1823.5C 2167.46,1810.65 2166.46,1797.65 2165.5,1784.5 Z"/></g>
<g><path style="opacity:1" fill="#dcd8d7" d="M 2195.5,1953.5 C 2195.82,1947.31 2195.49,1941.31 2194.5,1935.5C 2194.52,1922.31 2193.86,1909.31 2192.5,1896.5C 2191.39,1883.55 2190.72,1870.55 2190.5,1857.5C 2190.5,1840.83 2190.5,1824.17 2190.5,1807.5C 2200.68,1806.52 2210.68,1804.36 2220.5,1801C 2225.71,1799.7 2230.88,1799.53 2236,1800.5C 2237.19,1809.19 2238.52,1817.85 2240,1826.5C 2245.67,1852.69 2251.17,1878.86 2256.5,1905C 2256.41,1906.11 2256.08,1907.11 2255.5,1908C 2257.14,1913.32 2257.98,1918.82 2258,1924.5C 2258.83,1933.85 2258.67,1943.18 2257.5,1952.5C 2247.03,1956.62 2236.36,1960.12 2225.5,1963C 2215.89,1964.58 2206.23,1965.41 2196.5,1965.5C 2195.84,1961.53 2195.5,1957.53 2195.5,1953.5 Z"/></g>
<g><path style="opacity:0.996" fill="#998f88" d="M 2190.5,1807.5 C 2190.5,1824.17 2190.5,1840.83 2190.5,1857.5C 2189.82,1849.77 2189.15,1841.93 2188.5,1834C 2188.5,1828.67 2188.5,1823.33 2188.5,1818C 2189.14,1814.4 2189.8,1810.9 2190.5,1807.5 Z"/></g>
<g><path style="opacity:0.988" fill="#605c5d" d="M 1788.5,1860.5 C 1789.99,1864.26 1790.99,1868.26 1791.5,1872.5C 1790.88,1872.39 1790.38,1872.06 1790,1871.5C 1789.28,1867.85 1788.78,1864.19 1788.5,1860.5 Z"/></g>
<g><path style="opacity:1" fill="#aca8a7" d="M 1795.5,1890.5 C 1797.16,1892.44 1797.83,1894.77 1797.5,1897.5C 1796.39,1895.4 1795.72,1893.07 1795.5,1890.5 Z"/></g>
<g><path style="opacity:0.996" fill="#988e88" d="M 2192.5,1896.5 C 2193.86,1909.31 2194.52,1922.31 2194.5,1935.5C 2193.48,1923.43 2192.48,1911.27 2191.5,1899C 2191.88,1898.05 2192.22,1897.22 2192.5,1896.5 Z"/></g>
<g><path style="opacity:0.988" fill="#4c4749" d="M 2170.5,1900.5 C 2172.14,1912.96 2173.14,1925.62 2173.5,1938.5C 2173.5,1940.7 2173.16,1942.7 2172.5,1944.5C 2171.72,1929.84 2171.06,1915.18 2170.5,1900.5 Z"/></g>
<g><path style="opacity:1" fill="#7c7876" d="M 2194.5,1935.5 C 2195.49,1941.31 2195.82,1947.31 2195.5,1953.5C 2194.81,1948.1 2194.15,1942.6 2193.5,1937C 2194.06,1936.62 2194.39,1936.12 2194.5,1935.5 Z"/></g>
<g><path style="opacity:0.996" fill="#908985" d="M 2173.5,1959.5 C 2174.56,1967.32 2175.22,1975.32 2175.5,1983.5C 2173.78,1975.74 2173.12,1967.74 2173.5,1959.5 Z"/></g>
<g><path style="opacity:0.996" fill="#928b86" d="M 2178.5,2010.5 C 2179.8,2014.94 2180.47,2019.61 2180.5,2024.5C 2178.9,2020.1 2178.23,2015.43 2178.5,2010.5 Z"/></g>
<g><path style="opacity:1" fill="#84807e" d="M 1878.5,2047.5 C 1882.37,2048.13 1886.04,2049.13 1889.5,2050.5C 1886.13,2050.33 1882.79,2049.83 1879.5,2049C 1878.94,2048.62 1878.61,2048.12 1878.5,2047.5 Z"/></g>
<g><path style="opacity:0.988" fill="#595354" d="M 1923.5,2056.5 C 1929.35,2057.2 1935.02,2058.2 1940.5,2059.5C 1934.5,2059.67 1928.83,2058.67 1923.5,2056.5 Z"/></g>
<g><path style="opacity:0.988" fill="#4e4b4e" d="M 2090.5,2061.5 C 2090.08,2062.22 2089.42,2062.72 2088.5,2063C 2077.86,2064.04 2067.19,2064.54 2056.5,2064.5C 2067.69,2063.5 2079.02,2062.5 2090.5,2061.5 Z"/></g>
<g><path style="opacity:0.212" fill="#1f1b1b" d="M 2044.5,2108.5 C 2045.83,2109.17 2045.83,2109.17 2044.5,2108.5 Z"/></g>
<g><path style="opacity:0.212" fill="#1f1b1b" d="M 2046.5,2108.5 C 2047.83,2109.17 2047.83,2109.17 2046.5,2108.5 Z"/></g>
</svg>
