<svg width="512" height="512" viewBox="0 0 512 512" fill="none" xmlns="http://www.w3.org/2000/svg"><rect width="512" height="512" rx="128" fill="url(#bg)" stroke="#FFFFFF" stroke-width="0"/><defs><radialGradient id="bg" cx="50%" cy="50%" r="100%" fx="50%" fy="0%"><stop stop-color="#232323"/><stop offset="1" stop-color="#000000"/></radialGradient></defs><g transform="translate(76,76)"><path d="M168,36H88A52.06,52.06,0,0,0,36,88v80a52.06,52.06,0,0,0,52,52h48a3.83,3.83,0,0,0,1.26-.21c25.46-8.48,74.05-57.07,82.53-82.53A3.83,3.83,0,0,0,220,136V88A52.06,52.06,0,0,0,168,36ZM44,168V88A44.05,44.05,0,0,1,88,44h80a44.05,44.05,0,0,1,44,44v44H184a52.06,52.06,0,0,0-52,52v28H88A44.05,44.05,0,0,1,44,168Zm96,42V184a44.05,44.05,0,0,1,44-44h26C198.9,162.23,162.23,198.9,140,210Z" fill="#fffafa"/></g></svg>
